<svg width="258" height="229" viewBox="0 0 258 229" fill="none" xmlns="http://www.w3.org/2000/svg">
<path d="M37.6718 208.849C87.8917 235.082 169.314 235.082 219.534 208.849C269.754 182.616 269.754 140.074 219.534 113.842C169.314 87.6091 87.8917 87.6036 37.6663 113.842C-12.5591 140.08 -12.5536 182.611 37.6718 208.849Z" fill="#FAFAFA"/>
<path d="M90.4214 211.128C99.047 211.128 106.039 207.795 106.039 203.684C106.039 199.572 99.047 196.24 90.4214 196.24C81.7957 196.24 74.8032 199.572 74.8032 203.684C74.8032 207.795 81.7957 211.128 90.4214 211.128Z" fill="#EBEBEB"/>
<path d="M38.6916 123.414L41.2658 122.763C42.0855 119.362 42.6204 115.899 42.8649 112.41C43.528 104.052 40.2795 97.7445 36.2343 95.1369C31.4313 92.0445 28.9128 94.8694 29.2025 97.0926C29.509 99.4384 32.0442 102.754 33.2533 105.044C35.0029 108.359 37.6552 113.385 38.6916 123.414Z" fill="#7DD995"/>
<path opacity="0.2" d="M38.6916 123.414L41.2658 122.763C42.0855 119.362 42.6204 115.899 42.8649 112.41C43.528 104.052 40.2795 97.7445 36.2343 95.1369C31.4313 92.0445 28.9128 94.8694 29.2025 97.0926C29.509 99.4384 32.0442 102.754 33.2533 105.044C35.0029 108.359 37.6552 113.385 38.6916 123.414Z" fill="black"/>
<path d="M39.9452 123.292H39.9062C39.8817 123.287 39.8583 123.278 39.8374 123.264C39.8165 123.25 39.7986 123.232 39.7846 123.212C39.7706 123.191 39.7609 123.168 39.7559 123.143C39.751 123.119 39.7509 123.093 39.7558 123.069C42.8315 108.197 36.5129 97.5941 32.607 95.4712C32.5636 95.4466 32.5317 95.4059 32.5181 95.3579C32.5046 95.3099 32.5105 95.2585 32.5346 95.2149C32.5457 95.1924 32.5613 95.1724 32.5804 95.1561C32.5996 95.1399 32.6218 95.1278 32.6458 95.1205C32.6699 95.1131 32.6951 95.1108 32.7201 95.1137C32.745 95.1165 32.7691 95.1244 32.7909 95.1369C36.903 97.3656 43.2772 107.891 40.1291 123.147C40.1183 123.188 40.0945 123.224 40.0613 123.25C40.0282 123.276 39.9874 123.291 39.9452 123.292Z" fill="white"/>
<path d="M38.6915 123.414C38.8762 120.626 38.5147 117.829 37.6273 115.179C36.1674 111.084 33.8774 107.289 29.2694 105.885C24.6614 104.481 21.0786 107.813 23.3464 110.866C25.6142 113.92 34.0557 115.82 35.6994 125.398L38.6915 123.414Z" fill="#7DD995"/>
<path d="M37.3821 124.479C37.3324 124.473 37.2867 124.448 37.2546 124.41C37.2224 124.372 37.2062 124.322 37.2094 124.272C37.9003 116.561 32.6961 108.911 25.8538 107.557C25.8293 107.552 25.8059 107.543 25.785 107.529C25.7641 107.515 25.7462 107.497 25.7322 107.477C25.7182 107.456 25.7085 107.433 25.7035 107.408C25.6986 107.384 25.6985 107.358 25.7034 107.334C25.7073 107.309 25.7163 107.285 25.7299 107.264C25.7434 107.242 25.7612 107.224 25.7821 107.21C25.803 107.196 25.8266 107.186 25.8514 107.182C25.8762 107.177 25.9017 107.178 25.9262 107.183C32.9525 108.565 38.2904 116.399 37.5883 124.295C37.5885 124.321 37.5831 124.347 37.5725 124.371C37.5619 124.395 37.5463 124.416 37.5268 124.433C37.5073 124.451 37.4843 124.464 37.4594 124.472C37.4344 124.479 37.4081 124.482 37.3821 124.479Z" fill="white"/>
<path d="M205.554 185.647C205.554 185.647 206.429 177.379 211.583 171.823C216.737 166.268 222.248 166.318 224.398 168.313C226.549 170.308 224.337 173.411 219.551 176.437C215.45 179.028 210.028 184.906 208.362 188.874L205.554 185.647Z" fill="#7DD995"/>
<path opacity="0.2" d="M205.554 185.647C205.554 185.647 206.429 177.379 211.583 171.823C216.737 166.268 222.248 166.318 224.398 168.313C226.549 170.308 224.337 173.411 219.551 176.437C215.45 179.028 210.028 184.906 208.362 188.874L205.554 185.647Z" fill="black"/>
<path d="M206.741 187.208H206.691C206.642 187.197 206.6 187.167 206.573 187.126C206.546 187.084 206.536 187.033 206.546 186.985C208.736 178.549 216.091 170.052 222.287 168.803C222.311 168.798 222.337 168.798 222.361 168.803C222.386 168.807 222.409 168.817 222.43 168.831C222.451 168.844 222.469 168.862 222.483 168.883C222.497 168.903 222.507 168.927 222.512 168.951C222.518 168.976 222.518 169.001 222.513 169.025C222.509 169.05 222.499 169.074 222.485 169.095C222.472 169.115 222.454 169.134 222.433 169.148C222.413 169.162 222.389 169.172 222.365 169.177C216.297 170.403 209.076 178.772 206.914 187.085C206.901 187.12 206.877 187.151 206.846 187.173C206.815 187.194 206.779 187.207 206.741 187.208Z" fill="white"/>
<path d="M206.446 205.027C206.446 205.027 210.251 206.107 212.998 204.219C215.344 202.603 214.759 200.875 215.032 199.555C215.305 198.234 216.453 197.51 218.375 197.259C220.738 196.953 222.944 196.579 223.357 194.083C223.724 191.882 220.091 190.696 221.172 188.545C221.991 186.923 223.83 185.842 225.346 184.644C226.861 183.446 225.959 180.828 222.337 180.822C217.846 180.822 216.91 182.494 214.91 182.756C212.909 183.017 211.789 181.864 209.6 182.154C207.176 182.471 205.989 184.789 205.933 187.681L206.446 205.027Z" fill="#7DD995"/>
<path d="M206.195 196.774H206.134C206.11 196.766 206.088 196.754 206.069 196.737C206.05 196.72 206.034 196.699 206.023 196.677C206.013 196.654 206.006 196.629 206.005 196.604C206.004 196.578 206.008 196.553 206.017 196.529C208.017 190.885 218.804 183.029 223.323 182.226C223.348 182.221 223.374 182.222 223.399 182.227C223.423 182.232 223.447 182.242 223.468 182.257C223.488 182.272 223.506 182.29 223.52 182.312C223.533 182.333 223.542 182.357 223.546 182.382C223.551 182.407 223.551 182.433 223.545 182.458C223.54 182.482 223.53 182.506 223.515 182.527C223.501 182.547 223.482 182.565 223.461 182.579C223.439 182.592 223.415 182.601 223.39 182.605C218.933 183.396 208.346 191.108 206.379 196.646C206.365 196.684 206.339 196.716 206.307 196.738C206.274 196.761 206.235 196.774 206.195 196.774Z" fill="white"/>
<path d="M220.938 193.465C220.909 193.472 220.878 193.472 220.849 193.465C218.063 192.022 213.294 190.969 209.639 191.754C209.591 191.76 209.542 191.747 209.503 191.719C209.464 191.691 209.436 191.65 209.426 191.602C209.415 191.555 209.423 191.506 209.447 191.464C209.471 191.422 209.509 191.39 209.555 191.375C213.299 190.573 218.158 191.648 221.028 193.125C221.05 193.136 221.07 193.152 221.086 193.171C221.103 193.19 221.115 193.212 221.123 193.236C221.131 193.259 221.134 193.285 221.132 193.31C221.13 193.335 221.123 193.359 221.111 193.381C221.091 193.408 221.065 193.43 221.035 193.444C221.005 193.459 220.972 193.466 220.938 193.465Z" fill="white"/>
<path d="M211.561 189.771C211.511 189.771 211.462 189.751 211.427 189.715C211.391 189.68 211.371 189.631 211.371 189.581C211.371 186.21 210.257 184.566 210.229 184.566C210.2 184.525 210.188 184.474 210.196 184.423C210.204 184.373 210.232 184.328 210.274 184.299C210.315 184.269 210.366 184.257 210.417 184.266C210.467 184.274 210.512 184.302 210.541 184.344C210.591 184.41 211.761 186.088 211.756 189.592C211.752 189.641 211.729 189.686 211.693 189.719C211.657 189.753 211.61 189.771 211.561 189.771Z" fill="white"/>
<path d="M70.719 0.42513L71.0533 0.230113C71.3521 0.078831 71.6823 0 72.0173 0C72.3522 0 72.6824 0.078831 72.9812 0.230113L127.636 31.7895C127.917 31.9729 128.151 32.2197 128.318 32.5102C128.485 32.8006 128.582 33.1264 128.6 33.4611V109.635C128.581 109.97 128.484 110.295 128.317 110.585C128.149 110.876 127.916 111.123 127.636 111.307L127.302 111.496C127.004 111.65 126.673 111.73 126.338 111.73C126.003 111.73 125.672 111.65 125.374 111.496L70.719 79.9422C70.4377 79.7595 70.2037 79.5128 70.0361 79.2223C69.8686 78.9317 69.7723 78.6056 69.7551 78.2706V2.09671C69.7727 1.76185 69.8692 1.4359 70.0367 1.14541C70.2042 0.854925 70.438 0.608129 70.719 0.42513Z" fill="#FAFAFA"/>
<path d="M128.6 71.5453V33.4611C128.591 33.1241 128.493 32.7955 128.316 32.5083L125.196 34.3136V111.401L125.369 111.496C125.667 111.65 125.997 111.73 126.332 111.73C126.668 111.73 126.998 111.65 127.296 111.496L127.631 111.307C127.911 111.123 128.144 110.876 128.311 110.585C128.479 110.295 128.576 109.97 128.595 109.635L128.6 71.5453Z" fill="#E0E0E0"/>
<path d="M70.719 1.53952L125.374 33.0934C125.654 33.2774 125.887 33.5244 126.055 33.8147C126.222 34.1049 126.319 34.4304 126.338 34.765V110.939C126.338 111.557 125.903 111.808 125.374 111.496L70.719 79.9422C70.4377 79.7595 70.2037 79.5128 70.0361 79.2223C69.8686 78.9317 69.7723 78.6056 69.7551 78.2706V2.09671C69.7551 1.4838 70.1841 1.23306 70.719 1.53952Z" fill="#F5F5F5"/>
<path d="M77.5056 10.6886L118.582 34.4028C118.863 34.5854 119.097 34.8322 119.265 35.1227C119.432 35.4133 119.529 35.7394 119.546 36.0744V39.0721C119.546 39.685 119.117 39.9357 118.582 39.6292L77.5056 15.9262C77.2256 15.7423 76.9925 15.4952 76.8251 15.2049C76.6577 14.9147 76.5606 14.5892 76.5417 14.2547V11.2458C76.5417 10.6273 76.9763 10.3543 77.5056 10.6886Z" fill="#E0E0E0"/>
<path d="M86.2039 37.3097C88.4131 36.0341 88.413 31.8977 86.2035 28.0708C83.994 24.2438 80.4119 22.1755 78.2026 23.451C75.9933 24.7266 75.9934 28.863 78.2029 32.6899C80.4124 36.5169 83.9946 38.5852 86.2039 37.3097Z" fill="#E0E0E0"/>
<path d="M82.2473 25.9557C81.133 25.3205 80.2637 25.8331 80.2637 27.098C80.2994 27.7869 80.4978 28.4577 80.8425 29.0552C81.1873 29.6528 81.6687 30.1602 82.2473 30.5359C83.3617 31.1711 84.2309 30.6584 84.2309 29.4215C84.1987 28.7279 84.002 28.052 83.6571 27.4494C83.3122 26.8468 82.829 26.3348 82.2473 25.9557Z" fill="#7DD995"/>
<path d="M82.7655 31.4664L81.6511 30.8145C79.8458 29.7781 78.386 30.6194 78.386 32.6978V32.9819C79.3233 34.5848 80.6372 35.9351 82.2139 36.9157C83.6905 37.7682 84.9999 37.8852 86.0362 37.3949V37.0996C85.9714 35.9698 85.6415 34.8712 85.0733 33.8926C84.5051 32.9139 83.7145 32.0828 82.7655 31.4664Z" fill="#7DD995"/>
<path d="M77.7508 39.5791L86.6659 44.722C87.0098 44.9385 87.2979 45.2329 87.5069 45.5814C87.716 45.9298 87.8402 46.3226 87.8694 46.7279C87.8694 47.4467 87.3122 47.7197 86.6659 47.3352L77.7508 42.1979C77.4059 41.982 77.1167 41.6879 76.9067 41.3394C76.6966 40.9909 76.5716 40.5978 76.5417 40.192C76.5417 39.4677 77.0822 39.1946 77.7508 39.5791Z" fill="#E0E0E0"/>
<path d="M77.7508 44.8056L86.6659 49.9485C87.009 50.1645 87.2967 50.458 87.5057 50.8054C87.7148 51.1529 87.8393 51.5445 87.8694 51.9488C87.8694 52.6732 87.3122 52.9462 86.6659 52.5617L77.7508 47.4188C77.4056 47.2033 77.1162 46.9092 76.9061 46.5607C76.696 46.2121 76.5711 45.8189 76.5417 45.4129C76.5417 44.6942 77.0822 44.4211 77.7508 44.8056Z" fill="#E0E0E0"/>
<path d="M77.7508 50.0264L86.6659 55.1693C87.0065 55.3849 87.2922 55.6769 87.5001 56.0222C87.7081 56.3675 87.8326 56.7566 87.8638 57.1585C87.8638 57.8773 87.3066 58.1503 86.6603 57.7659L77.7452 52.6285C77.4003 52.4126 77.1111 52.1185 76.901 51.77C76.691 51.4215 76.5659 51.0285 76.5361 50.6226C76.5416 49.915 77.0821 49.642 77.7508 50.0264Z" fill="#E0E0E0"/>
<path d="M77.7508 55.2529L86.6659 60.3958C87.008 60.6124 87.2945 60.9062 87.5026 61.2536C87.7106 61.601 87.8343 61.9923 87.8638 62.3961C87.8638 63.1205 87.3066 63.3935 86.6603 63.0091L77.7452 57.8662C77.4 57.6506 77.1106 57.3565 76.9005 57.008C76.6904 56.6594 76.5655 56.2662 76.5361 55.8603C76.5416 55.1415 77.0821 54.8685 77.7508 55.2529Z" fill="#E0E0E0"/>
<path d="M77.7508 63.0982L86.6659 68.2356C87.0161 68.4653 87.3075 68.774 87.5165 69.137C87.7255 69.4999 87.8464 69.9068 87.8694 70.325V75.3788C87.8694 76.1477 87.3122 76.4597 86.6659 76.0753L77.7508 70.9379C77.3989 70.7095 77.106 70.4012 76.8959 70.0381C76.6858 69.675 76.5644 69.2674 76.5417 68.8485V63.7947C76.5417 63.0202 77.0822 62.7305 77.7508 63.0982Z" fill="#7DD995"/>
<path d="M95.854 29.1206L118.342 42.1143C118.685 42.3303 118.973 42.6238 119.182 42.9713C119.391 43.3187 119.516 43.7103 119.546 44.1147C119.546 44.839 118.989 45.112 118.342 44.7276L95.854 31.745C95.5109 31.529 95.2232 31.2355 95.0142 30.888C94.8051 30.5406 94.6806 30.149 94.6505 29.7446C94.6505 29.0091 95.1909 28.7417 95.854 29.1206Z" fill="#7DD995"/>
<path d="M95.854 34.347L118.342 47.3296C118.685 47.5456 118.973 47.8392 119.182 48.1866C119.391 48.534 119.516 48.9256 119.546 49.33C119.546 50.0543 118.989 50.3273 118.342 49.9429L95.854 36.9603C95.5109 36.7443 95.2232 36.4508 95.0142 36.1033C94.8051 35.7559 94.6806 35.3643 94.6505 34.96C94.6505 34.2356 95.1909 33.9626 95.854 34.347Z" fill="#7DD995"/>
<path d="M95.854 39.5736L118.342 52.5562C118.685 52.7722 118.973 53.0657 119.182 53.4131C119.391 53.7605 119.516 54.1522 119.546 54.5565C119.546 55.2808 118.989 55.5539 118.342 55.1694L95.854 42.1868C95.5109 41.9708 95.2232 41.6773 95.0142 41.3299C94.8051 40.9824 94.6806 40.5908 94.6505 40.1865C94.6505 39.4621 95.1909 39.1891 95.854 39.5736Z" fill="#7DD995"/>
<path d="M172.808 48.6335L174.925 47.4132C175.299 47.2238 175.712 47.125 176.132 47.125C176.551 47.125 176.964 47.2238 177.338 47.4132L224.699 74.7714C225.051 74.9999 225.344 75.3082 225.554 75.6713C225.764 76.0344 225.886 76.442 225.909 76.8609V136.798C225.886 137.217 225.764 137.625 225.554 137.988C225.344 138.351 225.051 138.659 224.699 138.888L222.588 140.108C222.214 140.297 221.8 140.396 221.381 140.396C220.962 140.396 220.549 140.297 220.175 140.108L172.786 112.75C172.435 112.52 172.144 112.211 171.935 111.848C171.726 111.485 171.605 111.078 171.582 110.66V50.7229C171.608 50.3028 171.732 49.8945 171.945 49.5315C172.158 49.1684 172.454 48.8607 172.808 48.6335Z" fill="#455A64"/>
<path d="M225.925 106.827V76.8609C225.912 76.4393 225.789 76.0284 225.569 75.6685L219.133 79.385V139.495L220.192 140.108C220.566 140.297 220.979 140.396 221.398 140.396C221.817 140.396 222.23 140.297 222.604 140.108L224.716 138.888C225.068 138.659 225.361 138.351 225.571 137.988C225.781 137.625 225.903 137.217 225.925 136.798V106.827Z" fill="#263238"/>
<path d="M172.808 50.0264L220.169 77.3846C220.52 77.6143 220.811 77.9231 221.02 78.286C221.229 78.649 221.35 79.0559 221.373 79.4741V139.411C221.373 140.18 220.816 140.492 220.169 140.108L172.78 112.75C172.43 112.52 172.139 112.211 171.93 111.848C171.72 111.485 171.6 111.078 171.577 110.66V50.7229C171.604 49.954 172.145 49.642 172.808 50.0264Z" fill="#37474F"/>
<path d="M216.793 79.3181L176.201 55.8826C175.533 55.4981 174.998 55.8101 174.998 56.5791V102.146C175.021 102.565 175.142 102.971 175.351 103.334C175.56 103.697 175.851 104.006 176.201 104.236L216.793 127.671C217.461 128.056 218.002 127.744 218.002 126.975V81.4076C217.979 80.9887 217.858 80.5811 217.648 80.218C217.438 79.8549 217.145 79.5466 216.793 79.3181Z" fill="white"/>
<path d="M184.392 66.0736C185.528 66.8165 186.473 67.8165 187.151 68.9926C187.829 70.1688 188.22 71.4881 188.292 72.8435C188.292 75.3398 186.543 76.3483 184.392 75.1002C183.255 74.358 182.31 73.3581 181.632 72.1818C180.954 71.0055 180.564 69.6859 180.492 68.3303C180.486 65.8285 182.236 64.8199 184.392 66.0736Z" fill="#7DD995"/>
<path d="M194.544 93.7996L187.301 82.8451C186.125 81.0733 184.097 80.9785 182.765 82.639L174.998 92.2617V102.163C175.02 102.582 175.142 102.99 175.352 103.353C175.562 103.716 175.855 104.024 176.207 104.253L216.793 127.655C217.461 128.039 218.002 127.727 218.002 126.958V101.272L207.917 79.9254C207.008 78.0031 205.303 77.8694 204.117 79.6301L194.544 93.7996Z" fill="#7DD995"/>
<path d="M183.071 183.842L196.349 176.175C197.052 175.718 197.637 175.101 198.056 174.374C198.475 173.648 198.717 172.833 198.762 171.996V96.5466C198.716 95.7095 198.474 94.8949 198.055 94.1689C197.636 93.4429 197.051 92.8258 196.349 92.3676L106.117 40.27C105.37 39.8907 104.543 39.693 103.705 39.693C102.866 39.693 102.04 39.8907 101.292 40.27L88.0087 47.937C87.3066 48.3952 86.7223 49.0123 86.3032 49.7383C85.884 50.4643 85.6417 51.2789 85.596 52.116V127.566C85.6417 128.403 85.884 129.217 86.3032 129.943C86.7223 130.669 87.3066 131.286 88.0087 131.744L178.274 183.842C179.018 184.217 179.84 184.412 180.673 184.412C181.506 184.412 182.327 184.217 183.071 183.842Z" fill="#455A64"/>
<path d="M198.745 96.5466C198.717 95.7068 198.475 94.8881 198.043 94.1674L178.397 105.523V183.909C179.129 184.252 179.93 184.424 180.739 184.413C181.548 184.401 182.343 184.206 183.066 183.842L196.355 176.17C197.053 175.71 197.633 175.093 198.049 174.368C198.464 173.643 198.703 172.831 198.745 171.996V96.5466Z" fill="#37474F"/>
<path d="M178.246 102.848L88.0087 50.7508C86.677 49.9819 85.5961 50.6059 85.5961 52.1438V127.565C85.6418 128.403 85.8841 129.217 86.3032 129.943C86.7224 130.669 87.3067 131.286 88.0087 131.744L178.274 183.842C179.606 184.611 180.687 183.987 180.687 182.449V106.999C180.634 106.165 180.385 105.354 179.961 104.633C179.537 103.912 178.95 103.301 178.246 102.848Z" fill="#37474F"/>
<path d="M186.164 98.2516C186.866 98.7097 187.45 99.3268 187.869 100.053C188.289 100.779 188.531 101.593 188.577 102.431V180.66L190.839 179.357V101.121C190.793 100.284 190.551 99.4695 190.132 98.7435C189.712 98.0174 189.128 97.4003 188.426 96.9422L95.776 43.4516L93.5138 44.761L186.164 98.2516Z" fill="#263238"/>
<path d="M188.426 96.9422L95.9319 43.5408L93.5973 44.8056L186.169 98.2516C186.882 98.6961 187.469 99.3157 187.874 100.051L190.137 98.7475C189.731 98.0084 189.142 97.3866 188.426 96.9422Z" fill="#37474F"/>
<path d="M174.402 84.9235L172.808 84.0041C172.434 83.8147 172.021 83.7159 171.602 83.7159C171.182 83.7159 170.769 83.8147 170.395 84.0041L164.266 87.5367L163.247 87.2303V88.5341C163.26 88.6843 163.314 88.8281 163.403 88.9506C163.491 89.073 163.61 89.1697 163.748 89.2306L165.86 90.4508C166.234 90.6403 166.647 90.739 167.066 90.739C167.485 90.739 167.898 90.6403 168.272 90.4508L174.914 86.6174C175.051 86.5557 175.169 86.4587 175.256 86.3363C175.344 86.2139 175.397 86.0705 175.41 85.9209V84.6115L174.402 84.9235Z" fill="#263238"/>
<path d="M174.925 83.9038L172.808 82.6836C172.434 82.4941 172.021 82.3954 171.602 82.3954C171.182 82.3954 170.769 82.4941 170.395 82.6836L163.759 86.5226C163.613 86.5705 163.486 86.6634 163.395 86.7879C163.305 86.9125 163.256 87.0625 163.256 87.2163C163.256 87.3702 163.305 87.5201 163.395 87.6447C163.486 87.7693 163.613 87.8622 163.759 87.91L165.871 89.1359C166.245 89.3253 166.658 89.424 167.077 89.424C167.496 89.424 167.91 89.3253 168.284 89.1359L174.925 85.2968C175.071 85.2474 175.197 85.1537 175.287 85.0288C175.376 84.9038 175.424 84.754 175.424 84.6003C175.424 84.4466 175.376 84.2968 175.287 84.1719C175.197 84.0469 175.071 83.9532 174.925 83.9038Z" fill="#455A64"/>
<path d="M120.081 53.5646L118.509 52.6453C118.135 52.4558 117.72 52.357 117.3 52.357C116.88 52.357 116.466 52.4558 116.091 52.6453L109.962 56.1779L108.942 55.8714V57.1585C108.956 57.3088 109.01 57.4525 109.098 57.575C109.187 57.6975 109.306 57.7941 109.444 57.855L111.556 59.0753C111.93 59.2647 112.343 59.3635 112.762 59.3635C113.181 59.3635 113.594 59.2647 113.968 59.0753L120.61 55.2418C120.748 55.1811 120.867 55.0843 120.954 54.9618C121.041 54.8392 121.094 54.6953 121.106 54.5453V53.2582L120.081 53.5646Z" fill="#263238"/>
<path d="M120.604 52.5617L118.487 51.3359C118.113 51.1464 117.7 51.0477 117.281 51.0477C116.862 51.0477 116.448 51.1464 116.074 51.3359L109.438 55.1749C109.293 55.2243 109.166 55.3181 109.077 55.443C108.987 55.5679 108.939 55.7177 108.939 55.8714C108.939 56.0251 108.987 56.175 109.077 56.2999C109.166 56.4248 109.293 56.5185 109.438 56.5679L111.55 57.7882C111.924 57.9776 112.337 58.0763 112.756 58.0763C113.176 58.0763 113.589 57.9776 113.963 57.7882L120.604 53.9547C120.75 53.9053 120.876 53.8116 120.966 53.6866C121.055 53.5617 121.104 53.4119 121.104 53.2582C121.104 53.1045 121.055 52.9547 120.966 52.8297C120.876 52.7048 120.75 52.6111 120.604 52.5617Z" fill="#455A64"/>
<path d="M137.655 53.2582V61.0979L133.13 63.7111V51.7537C133.13 51.1353 133.559 50.8901 134.094 51.1966L137.655 53.2582Z" fill="#263238"/>
<path d="M161.413 61.5659V76.1365L158.07 78.0812L155.808 76.7717V64.8199C155.789 64.4854 155.692 64.1599 155.525 63.8697C155.357 63.5794 155.124 63.3323 154.844 63.1484L137.655 53.2582L134.111 51.1966C133.554 50.8901 133.147 51.1353 133.147 51.7538V63.7056L130.879 62.3962V47.8311C130.874 47.7681 130.874 47.7047 130.879 47.6417C130.924 47.3413 131.032 47.0538 131.196 46.7983C131.361 46.5428 131.577 46.3251 131.832 46.1595L133.264 45.3293C133.563 45.178 133.893 45.0992 134.228 45.0992C134.563 45.0992 134.893 45.178 135.192 45.3293L160.422 59.8944C160.707 60.0749 160.946 60.3205 161.118 60.611C161.291 60.9016 161.392 61.2288 161.413 61.5659Z" fill="#455A64"/>
<path d="M158.026 63.5105V78.0811L155.763 76.7717V64.8199C155.744 64.4854 155.647 64.1599 155.48 63.8696C155.313 63.5794 155.08 63.3323 154.799 63.1484L137.655 53.2582L134.111 51.1966C133.554 50.8901 133.147 51.1353 133.147 51.7538V63.7056L130.879 62.3961V47.8311C130.874 47.7681 130.874 47.7047 130.879 47.6417C130.963 47.168 131.358 47.0009 131.832 47.2739L157.062 61.8389C157.341 62.0233 157.574 62.2704 157.742 62.5606C157.909 62.8508 158.006 63.1761 158.026 63.5105Z" fill="#37474F"/>
<path d="M191.975 210.052L194.238 208.743L191.975 143.524C191.951 143.105 191.829 142.698 191.619 142.335C191.409 141.972 191.117 141.664 190.766 141.434L147.913 116.689C147.161 116.208 146.577 115.505 146.241 114.678L144.887 110.777C144.553 109.954 143.968 109.256 143.215 108.783L123.017 97.4827C122.349 97.1094 121.797 97.427 121.797 98.1959V168.152C121.821 168.57 121.944 168.977 122.153 169.34C122.363 169.703 122.655 170.011 123.006 170.241L191.975 210.052Z" fill="#7DD995"/>
<path opacity="0.2" d="M191.975 210.052L194.238 208.743L191.975 143.524C191.951 143.105 191.829 142.698 191.619 142.335C191.409 141.972 191.117 141.664 190.766 141.434L147.913 116.689C147.161 116.208 146.577 115.505 146.241 114.678L144.887 110.777C144.553 109.954 143.968 109.256 143.215 108.783L123.017 97.4827C122.349 97.1094 121.797 97.427 121.797 98.1959V168.152C121.821 168.57 121.944 168.977 122.153 169.34C122.363 169.703 122.655 170.011 123.006 170.241L191.975 210.052Z" fill="black"/>
<path d="M158.99 99.5387L206.852 127.175C207.134 127.358 207.368 127.605 207.535 127.895C207.703 128.186 207.799 128.512 207.816 128.847V207.634C207.816 208.253 207.387 208.498 206.852 208.191L158.99 180.56C158.709 180.377 158.476 180.13 158.308 179.839C158.141 179.549 158.044 179.223 158.026 178.889V100.096C158.026 99.5053 158.455 99.2322 158.99 99.5387Z" fill="white"/>
<g opacity="0.5">
<path opacity="0.5" d="M207.287 208.604C207.09 208.596 206.899 208.539 206.73 208.437L158.867 180.8C158.542 180.594 158.271 180.312 158.077 179.98C157.883 179.647 157.772 179.273 157.753 178.889V100.096C157.728 99.9259 157.755 99.7522 157.829 99.5976C157.904 99.4429 158.024 99.3143 158.173 99.2284C158.322 99.1426 158.493 99.1034 158.665 99.116C158.836 99.1286 159 99.1924 159.134 99.2992L206.997 126.93C207.323 127.138 207.593 127.42 207.787 127.754C207.981 128.087 208.092 128.462 208.112 128.847V207.634C208.125 207.803 208.094 207.973 208.02 208.125C207.947 208.278 207.834 208.408 207.694 208.503C207.57 208.573 207.429 208.608 207.287 208.604ZM158.561 99.6892C158.522 99.6802 158.482 99.6802 158.444 99.6892C158.391 99.7375 158.351 99.7976 158.327 99.8645C158.303 99.9314 158.295 100.003 158.304 100.074V178.889C158.325 179.171 158.41 179.445 158.553 179.689C158.696 179.933 158.893 180.142 159.129 180.298L206.992 207.935C207.049 207.98 207.116 208.009 207.187 208.021C207.258 208.032 207.331 208.026 207.399 208.002C207.452 207.954 207.492 207.894 207.516 207.827C207.541 207.76 207.548 207.688 207.538 207.618V128.847C207.52 128.561 207.437 128.283 207.294 128.034C207.151 127.786 206.952 127.574 206.713 127.415L158.85 99.7839C158.764 99.726 158.664 99.6932 158.561 99.6892Z" fill="#E0E0E0"/>
</g>
<path d="M163.759 110.131L186.242 123.114C186.586 123.329 186.875 123.624 187.084 123.972C187.293 124.321 187.417 124.714 187.445 125.119C187.445 125.838 186.888 126.111 186.242 125.727L163.759 112.75C163.414 112.534 163.125 112.24 162.915 111.891C162.705 111.543 162.58 111.15 162.55 110.744C162.528 110.02 163.085 109.747 163.759 110.131Z" fill="#37474F"/>
<path d="M163.759 117.976L202.089 140.102C202.433 140.317 202.722 140.611 202.932 140.958C203.142 141.306 203.267 141.698 203.298 142.103C203.298 142.827 202.74 143.1 202.094 142.716L163.765 120.589C163.42 120.374 163.13 120.08 162.92 119.731C162.71 119.383 162.585 118.99 162.556 118.584C162.528 117.893 163.085 117.592 163.759 117.976Z" fill="#E0E0E0"/>
<path d="M163.759 125.816L202.089 147.942C202.433 148.157 202.722 148.45 202.932 148.798C203.142 149.145 203.267 149.537 203.298 149.942C203.298 150.667 202.74 150.94 202.094 150.555L163.765 128.429C163.42 128.214 163.13 127.92 162.92 127.571C162.71 127.222 162.585 126.829 162.556 126.423C162.528 125.693 163.085 125.431 163.759 125.816Z" fill="#E0E0E0"/>
<path d="M163.759 133.656L202.088 155.782C202.434 155.997 202.723 156.291 202.933 156.64C203.143 156.989 203.268 157.382 203.298 157.788C203.298 158.506 202.74 158.78 202.094 158.395L163.759 136.28C163.415 136.065 163.126 135.772 162.916 135.424C162.706 135.077 162.58 134.685 162.55 134.28C162.528 133.544 163.085 133.271 163.759 133.656Z" fill="#E0E0E0"/>
<path d="M163.759 141.495L202.089 163.622C202.434 163.837 202.723 164.131 202.933 164.48C203.143 164.828 203.268 165.221 203.298 165.627C203.298 166.346 202.74 166.619 202.094 166.235L163.765 144.109C163.42 143.894 163.131 143.6 162.921 143.253C162.711 142.905 162.586 142.513 162.556 142.108C162.528 141.384 163.085 141.111 163.759 141.495Z" fill="#E0E0E0"/>
<path d="M163.759 149.335L202.089 171.461C202.433 171.677 202.723 171.971 202.933 172.32C203.143 172.668 203.268 173.061 203.298 173.467C203.298 174.191 202.74 174.464 202.094 174.08L163.765 151.948C163.42 151.733 163.131 151.44 162.921 151.093C162.711 150.745 162.586 150.353 162.556 149.948C162.528 149.224 163.085 148.951 163.759 149.335Z" fill="#E0E0E0"/>
<path d="M163.759 157.18L202.088 179.307C202.433 179.522 202.722 179.815 202.932 180.162C203.142 180.51 203.267 180.902 203.298 181.307C203.298 182.031 202.74 182.304 202.094 181.92L163.759 159.794C163.414 159.578 163.125 159.284 162.914 158.935C162.704 158.587 162.579 158.194 162.55 157.788C162.528 157.069 163.085 156.796 163.759 157.18Z" fill="#E0E0E0"/>
<path d="M163.759 165.02L202.089 187.146C202.433 187.361 202.722 187.654 202.932 188.002C203.142 188.35 203.267 188.742 203.298 189.147C203.298 189.871 202.74 190.144 202.094 189.76L163.765 167.633C163.42 167.418 163.13 167.124 162.92 166.775C162.71 166.427 162.585 166.033 162.556 165.627C162.528 164.909 163.085 164.636 163.759 165.02Z" fill="#E0E0E0"/>
<path d="M152.197 103.456L200.06 131.093C200.342 131.275 200.577 131.522 200.746 131.812C200.914 132.103 201.012 132.429 201.03 132.764V211.551C201.03 212.164 200.595 212.415 200.06 212.109L152.197 184.472C151.917 184.288 151.683 184.042 151.516 183.751C151.348 183.461 151.252 183.135 151.234 182.8V104.013C151.234 103.406 151.668 103.149 152.197 103.456Z" fill="white"/>
<path d="M200.495 212.515C200.298 212.508 200.106 212.45 199.938 212.348L152.075 184.717C151.749 184.51 151.478 184.228 151.284 183.894C151.09 183.561 150.979 183.186 150.96 182.8V104.013C150.938 103.844 150.967 103.672 151.043 103.519C151.118 103.366 151.238 103.239 151.385 103.153C151.533 103.068 151.703 103.029 151.873 103.04C152.044 103.051 152.207 103.112 152.342 103.216L200.205 130.847C200.531 131.054 200.803 131.336 200.997 131.67C201.191 132.003 201.302 132.379 201.32 132.764V211.551C201.333 211.72 201.3 211.889 201.226 212.041C201.151 212.193 201.037 212.322 200.896 212.415C200.774 212.484 200.635 212.519 200.495 212.515ZM151.768 103.601C151.729 103.6 151.691 103.609 151.657 103.629C151.603 103.675 151.561 103.735 151.536 103.802C151.51 103.869 151.502 103.942 151.512 104.013V182.8C151.53 183.086 151.613 183.365 151.756 183.613C151.899 183.861 152.098 184.073 152.337 184.232L200.2 211.869C200.247 211.932 200.315 211.976 200.393 211.992C200.47 212.008 200.55 211.995 200.618 211.956C200.687 211.917 200.739 211.854 200.764 211.78C200.79 211.705 200.787 211.624 200.757 211.551V132.764C200.739 132.477 200.655 132.199 200.511 131.95C200.367 131.702 200.167 131.49 199.927 131.332L152.064 103.695C151.975 103.639 151.873 103.606 151.768 103.601Z" fill="#E0E0E0"/>
<path d="M156.956 114.048L179.439 127.031C179.784 127.246 180.073 127.54 180.283 127.889C180.493 128.237 180.618 128.631 180.648 129.037C180.648 129.755 180.09 130.028 179.439 129.644L156.956 116.661C156.611 116.446 156.322 116.153 156.112 115.806C155.902 115.458 155.777 115.066 155.747 114.661C155.758 113.937 156.298 113.664 156.956 114.048Z" fill="#E0E0E0"/>
<path d="M156.956 121.888L195.285 144.014C195.628 144.231 195.916 144.526 196.125 144.874C196.334 145.222 196.459 145.615 196.489 146.02C196.489 146.744 195.932 147.017 195.285 146.633L156.956 124.501C156.611 124.286 156.322 123.993 156.112 123.645C155.902 123.298 155.777 122.906 155.747 122.501C155.758 121.793 156.298 121.503 156.956 121.888Z" fill="#E0E0E0"/>
<path d="M156.956 129.733L195.296 151.882C195.639 152.098 195.927 152.391 196.136 152.738C196.345 153.086 196.47 153.478 196.5 153.882C196.5 154.606 195.943 154.879 195.296 154.495L156.956 132.346C156.611 132.131 156.321 131.837 156.111 131.488C155.901 131.14 155.776 130.746 155.747 130.34C155.758 129.622 156.298 129.349 156.956 129.733Z" fill="#E0E0E0"/>
<path d="M156.956 137.573L195.296 159.682C195.639 159.898 195.927 160.192 196.136 160.539C196.345 160.887 196.47 161.278 196.5 161.682C196.5 162.407 195.943 162.68 195.296 162.295L156.956 140.18C156.611 139.965 156.321 139.671 156.111 139.322C155.901 138.974 155.776 138.58 155.747 138.174C155.758 137.461 156.298 137.188 156.956 137.573Z" fill="#E0E0E0"/>
<path d="M156.956 145.412L195.285 167.539C195.629 167.755 195.917 168.05 196.126 168.398C196.335 168.746 196.459 169.139 196.489 169.545C196.489 170.263 195.932 170.536 195.285 170.152L156.956 148.026C156.611 147.811 156.322 147.517 156.112 147.17C155.902 146.822 155.777 146.43 155.747 146.025C155.758 145.301 156.298 145.028 156.956 145.412Z" fill="#E0E0E0"/>
<path d="M156.956 153.252L195.285 175.378C195.629 175.595 195.917 175.889 196.126 176.238C196.335 176.586 196.459 176.979 196.489 177.384C196.489 178.103 195.932 178.376 195.285 177.992L156.956 155.865C156.611 155.65 156.322 155.357 156.112 155.01C155.902 154.662 155.777 154.27 155.747 153.865C155.758 153.141 156.298 152.868 156.956 153.252Z" fill="#E0E0E0"/>
<path d="M156.956 161.092L195.285 183.218C195.629 183.435 195.917 183.729 196.126 184.077C196.335 184.426 196.459 184.819 196.489 185.224C196.489 185.948 195.932 186.221 195.285 185.837L156.956 163.705C156.611 163.49 156.322 163.197 156.112 162.849C155.902 162.502 155.777 162.11 155.747 161.705C155.758 160.98 156.298 160.707 156.956 161.092Z" fill="#E0E0E0"/>
<path d="M156.956 168.937L195.285 191.063C195.628 191.279 195.916 191.573 196.125 191.92C196.334 192.268 196.459 192.659 196.489 193.064C196.489 193.788 195.932 194.061 195.285 193.677L156.956 171.55C156.611 171.335 156.321 171.041 156.111 170.692C155.901 170.344 155.776 169.95 155.747 169.545C155.758 168.826 156.298 168.553 156.956 168.937Z" fill="#E0E0E0"/>
<path d="M191.975 210.053L180.915 150.004C180.707 149.155 180.186 148.416 179.455 147.937L111.706 108.822C111.043 108.437 110.592 108.744 110.753 109.496L121.563 168.174C121.771 169.023 122.292 169.761 123.023 170.241L191.975 210.053Z" fill="#7DD995"/>
<path d="M108.229 136.96V175.963C108.252 176.382 108.373 176.79 108.584 177.153C108.794 177.516 109.087 177.824 109.438 178.053L136.446 193.654C136.795 193.873 137.197 193.993 137.61 194.001C138.022 194.008 138.428 193.903 138.785 193.697C139.142 193.49 139.436 193.191 139.636 192.83C139.835 192.469 139.932 192.06 139.917 191.648V152.639C139.894 152.221 139.773 151.814 139.564 151.451C139.355 151.088 139.064 150.779 138.713 150.55L111.701 134.948C111.352 134.73 110.95 134.61 110.538 134.602C110.126 134.594 109.72 134.699 109.363 134.905C109.007 135.11 108.713 135.409 108.513 135.769C108.313 136.129 108.215 136.537 108.229 136.949V136.96Z" fill="#455A64"/>
<path d="M139.917 172.158V152.656C139.903 152.237 139.782 151.828 139.566 151.469L136.167 153.43V193.548L136.446 193.71C136.805 193.9 137.204 194.003 137.611 194.009C138.018 194.016 138.42 193.927 138.786 193.749C139.119 193.519 139.393 193.215 139.587 192.859C139.78 192.504 139.888 192.108 139.9 191.704L139.917 172.158Z" fill="#263238"/>
<path d="M109.438 136.28L136.446 151.881C136.797 152.11 137.09 152.418 137.3 152.781C137.511 153.144 137.632 153.552 137.655 153.971V193.002C137.655 193.771 137.097 194.083 136.446 193.699L109.438 178.097C109.087 177.869 108.794 177.561 108.583 177.198C108.373 176.834 108.252 176.427 108.229 176.008V137.004C108.229 136.191 108.77 135.879 109.438 136.28Z" fill="#37474F"/>
<path d="M111.701 140.18L134.183 153.157C134.535 153.387 134.827 153.695 135.037 154.058C135.247 154.421 135.369 154.828 135.392 155.247V183.825C135.392 184.594 134.835 184.906 134.183 184.522L111.701 171.539C111.349 171.311 111.056 171.002 110.846 170.639C110.636 170.276 110.514 169.869 110.492 169.45V140.882C110.492 140.114 111.032 139.801 111.701 140.18Z" fill="white"/>
<path d="M115.935 146.867C116.713 147.374 117.36 148.058 117.823 148.863C118.287 149.667 118.555 150.57 118.604 151.497C118.604 153.202 117.412 153.893 115.935 153.04C115.157 152.533 114.509 151.849 114.045 151.045C113.58 150.24 113.311 149.338 113.261 148.41C113.261 146.694 114.459 146.003 115.935 146.867Z" fill="#7DD995"/>
<path d="M127.352 157.013L121.78 165.204L117.573 158.863C117.448 158.629 117.265 158.431 117.04 158.29C116.816 158.148 116.558 158.067 116.293 158.055C116.028 158.042 115.764 158.099 115.528 158.219C115.291 158.339 115.09 158.519 114.943 158.741L110.486 164.312V169.45C110.509 169.869 110.63 170.276 110.84 170.639C111.05 171.002 111.343 171.311 111.695 171.539L134.178 184.522C134.846 184.906 135.387 184.594 135.387 183.825V169.544L129.547 157.186C129.029 156.072 128.043 155.994 127.352 157.013Z" fill="#7DD995"/>
<path opacity="0.2" d="M127.352 157.013L121.78 165.204L117.573 158.863C117.448 158.629 117.265 158.431 117.04 158.29C116.816 158.148 116.558 158.067 116.293 158.055C116.028 158.042 115.764 158.099 115.528 158.219C115.291 158.339 115.09 158.519 114.943 158.741L110.486 164.312V169.45C110.509 169.869 110.63 170.276 110.84 170.639C111.05 171.002 111.343 171.311 111.695 171.539L134.178 184.522C134.846 184.906 135.387 184.594 135.387 183.825V169.544L129.547 157.186C129.029 156.072 128.043 155.994 127.352 157.013Z" fill="black"/>
<path d="M23.1848 129.783C31.8698 124.547 39.0541 117.156 44.0409 108.326C49.0276 99.4953 51.6474 89.5261 51.6462 79.385V59.5935C51.6462 58.9806 52.0808 58.7299 52.6102 59.0363L102.758 87.9769C103.038 88.1609 103.271 88.4079 103.438 88.6982C103.606 88.9885 103.703 89.314 103.722 89.6485V109.44C103.716 119.536 101.112 129.461 96.1621 138.26C91.2118 147.058 84.0809 154.436 75.4551 159.682C75.0985 159.894 74.6914 160.006 74.2766 160.006C73.8619 160.006 73.4548 159.894 73.0982 159.682L23.1904 130.909C23.0735 130.868 22.972 130.793 22.8999 130.692C22.8279 130.592 22.7888 130.472 22.7882 130.348C22.7876 130.224 22.8254 130.104 22.8965 130.002C22.9675 129.901 23.0683 129.825 23.1848 129.783Z" fill="white"/>
<path d="M74.2739 160.317C73.8116 160.318 73.3576 160.195 72.9589 159.961L23.0511 131.148C22.8927 131.082 22.7573 130.971 22.6622 130.828C22.567 130.685 22.5162 130.518 22.5162 130.346C22.5162 130.174 22.567 130.007 22.6622 129.864C22.7573 129.721 22.8927 129.61 23.0511 129.544C31.6731 124.311 38.8063 116.952 43.7666 108.171C48.727 99.3897 51.3482 89.4814 51.3788 79.3962V59.5935C51.3664 59.4249 51.3991 59.2561 51.4735 59.1043C51.548 58.9525 51.6614 58.8233 51.8023 58.7299C51.9531 58.6534 52.1219 58.6192 52.2907 58.631C52.4594 58.6427 52.6218 58.7 52.7606 58.7967L102.908 87.7373C103.233 87.9436 103.504 88.2248 103.698 88.5573C103.892 88.8899 104.003 89.2641 104.022 89.6485V109.44C103.986 119.583 101.356 129.548 96.3825 138.388C91.4087 147.228 84.2563 154.648 75.6056 159.944C75.2053 160.191 74.7439 160.32 74.2739 160.317ZM23.3297 130.023C23.1625 130.123 23.0678 130.24 23.0678 130.351C23.0678 130.463 23.1625 130.569 23.3297 130.664L73.2375 159.482C73.5516 159.666 73.9094 159.764 74.2739 159.764C74.6383 159.764 74.9961 159.666 75.3102 159.482C83.8735 154.231 90.9519 146.878 95.8729 138.122C100.794 129.365 103.394 119.496 103.426 109.451V89.6485C103.408 89.3625 103.324 89.0846 103.181 88.8363C103.038 88.588 102.84 88.3759 102.602 88.2165L52.4542 59.2759C52.3978 59.2329 52.3318 59.2043 52.2619 59.1926C52.192 59.181 52.1203 59.1866 52.053 59.209C51.9986 59.2559 51.9569 59.3156 51.9315 59.3828C51.9062 59.45 51.8982 59.5224 51.9081 59.5935V79.385C51.8773 89.5678 49.2316 99.572 44.2245 108.439C39.2174 117.306 32.0169 124.738 23.313 130.023H23.3297Z" fill="#E0E0E0"/>
<path d="M82.2919 84.0041L95.7258 91.7603C96.0689 91.9762 96.3566 92.2698 96.5656 92.6172C96.7747 92.9646 96.8992 93.3562 96.9293 93.7606C96.9293 94.4849 96.3721 94.7579 95.7258 94.3735L82.2919 86.6173C81.948 86.4008 81.6599 86.1064 81.4508 85.758C81.2418 85.4095 81.1176 85.0168 81.0883 84.6115C81.0716 83.9038 81.6121 83.6196 82.2919 84.0041Z" fill="#E0E0E0"/>
<path d="M74.2794 91.1473C74.2794 91.8661 73.7222 92.1391 73.0703 91.7547L59.642 84.0041C59.2988 83.7881 59.0112 83.4946 58.8021 83.1472C58.5931 82.7997 58.4685 82.4081 58.4384 82.0038C58.4384 81.2794 58.9956 81.0064 59.642 81.3909L73.0703 89.1414C73.4155 89.357 73.7049 89.651 73.915 89.9996C74.1251 90.3482 74.25 90.7414 74.2794 91.1473Z" fill="#E0E0E0"/>
<path d="M96.2551 114.282C96.1548 114.945 95.5196 115.168 94.851 114.784L58.795 93.9668C58.4673 93.7743 58.1991 93.495 58.0201 93.1597C57.8412 92.8244 57.7584 92.4461 57.7809 92.0667C57.8812 91.4037 58.4885 91.1752 59.1516 91.5597L95.2187 112.382C95.5493 112.573 95.8209 112.851 96.0038 113.186C96.1866 113.522 96.2735 113.901 96.2551 114.282Z" fill="#E0E0E0"/>
<path d="M94.7674 121.269C94.5891 121.888 93.8982 122.077 93.2296 121.693L57.1736 100.87C56.8566 100.696 56.6016 100.428 56.4439 100.103C56.2862 99.7771 56.2335 99.4107 56.2932 99.054C56.4659 98.4299 57.1346 98.2349 57.7976 98.6194L93.8592 119.442C94.1805 119.616 94.4403 119.884 94.6029 120.212C94.7654 120.539 94.8229 120.908 94.7674 121.269Z" fill="#E0E0E0"/>
<path d="M92.5219 127.811C92.2823 128.396 91.5412 128.552 90.8503 128.167L54.7888 107.351C54.4791 107.192 54.2341 106.931 54.0958 106.612C53.9576 106.293 53.9346 105.935 54.031 105.601C54.1022 105.459 54.204 105.334 54.3292 105.236C54.4543 105.138 54.5996 105.069 54.7547 105.034C54.9098 104.998 55.0708 104.998 55.226 105.033C55.3812 105.067 55.5268 105.136 55.6524 105.233L91.7641 126.056C92.0721 126.217 92.3153 126.48 92.4532 126.799C92.5911 127.119 92.6153 127.476 92.5219 127.811Z" fill="#E0E0E0"/>
<path d="M89.58 133.957C89.3825 134.227 89.0861 134.409 88.7553 134.462C88.4245 134.515 88.0861 134.436 87.8137 134.241L51.7577 113.435C51.4567 113.292 51.222 113.039 51.1018 112.728C50.9816 112.417 50.985 112.072 51.1113 111.764C51.2048 111.628 51.3242 111.513 51.4626 111.425C51.601 111.337 51.7557 111.277 51.9175 111.249C52.0793 111.221 52.2451 111.225 52.4052 111.262C52.5652 111.299 52.7164 111.367 52.8498 111.463L88.9113 132.279C89.2149 132.422 89.4529 132.674 89.5771 132.986C89.7012 133.297 89.7023 133.644 89.58 133.957Z" fill="#E0E0E0"/>
<path d="M68.7576 132.38C68.5113 132.629 68.1863 132.785 67.8379 132.822C67.4895 132.858 67.1391 132.773 66.8464 132.58L46.6315 120.918C46.4876 120.854 46.3591 120.759 46.2545 120.641C46.1499 120.523 46.0716 120.384 46.0247 120.233C45.9778 120.082 45.9635 119.924 45.9826 119.767C46.0017 119.61 46.0538 119.46 46.1356 119.325C46.3765 119.073 46.6977 118.914 47.0436 118.874C47.3895 118.835 47.7385 118.917 48.03 119.107L68.2506 130.808C68.9192 131.171 69.1477 131.895 68.7576 132.38Z" fill="#E0E0E0"/>
<path d="M61.3748 143.195C61.3748 143.195 50.7881 150.182 38.0674 150.667C40.6583 152.166 46.5033 152.784 51.0166 152.166C51.0166 152.166 50.3869 154.79 45.8347 158.144C45.8347 158.144 53.2453 160.145 66.5567 146.181L61.3748 143.195Z" fill="#7DD995"/>
<path d="M72.5744 145.819C70.3066 148.126 65.7321 148.321 62.6062 146.516C59.4804 144.71 58.99 141.596 61.2578 139.272C63.5256 136.949 67.6822 136.364 70.8081 138.158C73.934 139.952 74.8422 143.524 72.5744 145.819Z" fill="#7DD995"/>
<path opacity="0.2" d="M72.5744 145.819C70.3066 148.126 65.7321 148.321 62.6062 146.516C59.4804 144.71 58.99 141.596 61.2578 139.272C63.5256 136.949 67.6822 136.364 70.8081 138.158C73.934 139.952 74.8422 143.524 72.5744 145.819Z" fill="black"/>
<path d="M72.5744 145.123C70.3066 147.429 65.7321 147.619 62.6062 145.819C59.4804 144.019 58.99 140.894 61.2578 138.576C63.5256 136.258 67.6822 135.662 70.8081 137.461C73.934 139.261 74.8422 142.816 72.5744 145.123Z" fill="#7DD995"/>
<path d="M67.3201 145.357C65.9565 145.371 64.6126 145.031 63.4197 144.37C62.3053 143.73 61.6367 142.894 61.5197 142.008C61.4913 141.592 61.5578 141.176 61.7142 140.79C61.8706 140.403 62.1127 140.058 62.4223 139.779C63.5906 138.676 65.1453 138.076 66.7517 138.108C67.8723 138.098 68.9756 138.384 69.95 138.938C70.5026 139.22 70.9845 139.623 71.3598 140.117C71.7351 140.611 71.9941 141.183 72.1175 141.791C72.1725 142.186 72.1324 142.589 72.0007 142.966C71.8689 143.343 71.6492 143.683 71.3597 143.958C70.2456 144.931 68.7971 145.432 67.3201 145.357Z" fill="#7DD995"/>
<path opacity="0.3" d="M67.3201 145.357C65.9565 145.371 64.6126 145.031 63.4197 144.37C62.3053 143.73 61.6367 142.894 61.5197 142.008C61.4913 141.592 61.5578 141.176 61.7142 140.79C61.8706 140.403 62.1127 140.058 62.4223 139.779C63.5906 138.676 65.1453 138.076 66.7517 138.108C67.8723 138.098 68.9756 138.384 69.95 138.938C70.5026 139.22 70.9845 139.623 71.3598 140.117C71.7351 140.611 71.9941 141.183 72.1175 141.791C72.1725 142.186 72.1324 142.589 72.0007 142.966C71.8689 143.343 71.6492 143.683 71.3597 143.958C70.2456 144.931 68.7971 145.432 67.3201 145.357Z" fill="black"/>
<path d="M69.9723 139.623C68.9969 139.072 67.8943 138.786 66.774 138.793C65.1676 138.761 63.6129 139.361 62.4446 140.465C61.9941 140.899 61.6836 141.457 61.5531 142.069C61.6797 142.568 61.9146 143.033 62.2411 143.43C62.5675 143.828 62.9775 144.149 63.442 144.37C64.6348 145.031 65.9788 145.371 67.3423 145.357C68.8277 145.437 70.2854 144.933 71.4043 143.953C71.813 143.555 72.0794 143.034 72.1621 142.47C72.0336 141.862 71.7701 141.291 71.3911 140.798C71.0121 140.305 70.5272 139.904 69.9723 139.623Z" fill="#7DD995"/>
<path opacity="0.2" d="M69.9723 139.623C68.9969 139.072 67.8943 138.786 66.774 138.793C65.1676 138.761 63.6129 139.361 62.4446 140.465C61.9941 140.899 61.6836 141.457 61.5531 142.069C61.6797 142.568 61.9146 143.033 62.2411 143.43C62.5675 143.828 62.9775 144.149 63.442 144.37C64.6348 145.031 65.9788 145.371 67.3423 145.357C68.8277 145.437 70.2854 144.933 71.4043 143.953C71.813 143.555 72.0794 143.034 72.1621 142.47C72.0336 141.862 71.7701 141.291 71.3911 140.798C71.0121 140.305 70.5272 139.904 69.9723 139.623Z" fill="black"/>
<path d="M93.3948 128.025C93.9656 125.78 92.6077 123.496 90.3619 122.925C88.1161 122.355 85.8328 123.713 85.2621 125.958C84.6913 128.204 86.0492 130.487 88.295 131.058C90.5408 131.629 92.8241 130.271 93.3948 128.025Z" fill="#263238"/>
<path d="M99.381 197.978H96.4279V203.037H99.381V197.978Z" fill="#FFA8A7"/>
<path d="M89.1398 197.711L86.1867 197.811L86.0363 192.456L89.1398 192.356V197.711Z" fill="#FFA8A7"/>
<path d="M99.186 154.634C99.186 157.453 99.5538 177.802 99.5538 177.802C99.6206 178.616 100.384 180.114 100.217 183.229C99.9939 187.464 99.5092 200.502 99.5092 200.502C98.998 200.752 98.4383 200.887 97.8695 200.897C97.3006 200.908 96.7363 200.794 96.2162 200.563C96.2162 200.563 93.6141 183.24 93.0792 179.045C92.6223 175.378 91.8366 165.427 91.8366 165.427L90.2375 177.39C90.5767 178.929 90.6986 180.508 90.5997 182.081C90.4604 184.026 89.3237 196.045 89.3237 196.045C88.809 196.335 88.237 196.509 87.6478 196.554C87.0586 196.6 86.4666 196.515 85.9137 196.307C85.9137 196.307 84.4204 179.167 84.387 177.39C84.348 175.356 85.3676 154.628 85.3676 154.628L99.186 154.634Z" fill="#37474F"/>
<path d="M97.9267 138.604C97.9267 138.604 99.0411 139.272 99.0411 141.947V147.736L99.1247 158.663C96.9277 159.871 94.4303 160.426 91.9282 160.26C89.426 160.094 87.0237 159.215 85.0054 157.726C85.0054 157.726 85.2227 143.68 85.2227 141.378C85.2227 139.077 86.5043 136.085 90.0369 135.879L94.5947 136.938L97.9267 138.604Z" fill="white"/>
<path d="M85.2283 150.684C86.599 144.928 87.0503 139.172 87.2843 137.69L83.4898 143.752C83.4898 143.752 82.6485 148.46 82.2194 150.957C81.6565 153.638 80.8662 156.266 79.857 158.813C79.582 159.187 79.2155 159.485 78.7927 159.677C78.1322 160.036 77.5293 160.492 77.0041 161.031C76.5138 161.443 76.1238 161.515 76.1628 161.666C76.2282 161.838 76.3568 161.979 76.5225 162.06C76.6881 162.14 76.8783 162.155 77.0543 162.1C77.4423 161.995 77.8163 161.843 78.1687 161.649C77.8304 162.297 77.3902 162.885 76.8648 163.393C75.6724 164.558 75.5331 165.343 77.6505 165.622C78.9766 165.783 80.13 165.065 81.4617 162.279C81.974 161.253 82.4117 160.192 82.7711 159.103C83.6236 156.244 84.816 152.439 85.2283 150.684Z" fill="#FFA8A7"/>
<path d="M88.2706 135.89C86.9946 135.684 86.1142 135.795 85.2394 136.737C84.6822 137.328 84.125 138.308 83.1667 144.203C82.3365 149.33 79.9684 157.793 79.9684 157.793C80.3662 158.241 80.8698 158.583 81.4333 158.786C81.9968 158.989 82.6023 159.049 83.1945 158.958L87.3623 143.63L88.2706 135.89Z" fill="#37474F"/>
<path d="M90.1818 136.135C89.2054 136.955 88.4986 138.05 88.1536 139.278C87.719 141.156 87.6465 162.089 87.6465 162.089C87.6465 162.089 85.4178 161.677 84.387 160.863V141.729C84.387 138.988 84.9999 134.82 90.1818 136.135Z" fill="#37474F"/>
<path d="M94.7396 137.194C94.7396 137.194 92.2657 139.763 92.21 146.031C92.1542 152.299 92.054 163.304 92.054 163.304C92.054 163.304 96.4112 164.19 99.5203 162.334C99.5203 162.334 99.1693 146.633 99.108 144.276C99.0412 141.579 99.8268 139.289 98.3112 138.531C97.1599 137.987 95.9652 137.54 94.7396 137.194Z" fill="#37474F"/>
<path d="M96.5895 129.995C96.338 131.25 96.02 132.49 95.6367 133.711C95.4543 134.035 95.1553 134.276 94.8009 134.386L94.8455 132.157L96.5895 129.995Z" fill="#263238"/>
<path d="M95.737 125.42C95.974 125.392 96.2143 125.418 96.4395 125.497C96.6646 125.577 96.8685 125.707 97.0353 125.877C97.5925 126.435 97.286 128.24 96.5895 129.995L95.308 130.14L95.737 125.42Z" fill="#263238"/>
<path d="M94.9235 130.151C95.1798 130.307 95.5475 129.811 95.8651 129.482C95.9896 129.341 96.1479 129.234 96.3251 129.17C96.5024 129.107 96.6928 129.09 96.8786 129.12C97.0644 129.15 97.2396 129.226 97.3878 129.342C97.536 129.458 97.6524 129.61 97.7261 129.783C98.2833 130.898 97.2748 132.352 96.4613 132.608C95.0572 133.048 94.8454 132.151 94.8454 132.151L94.7396 137.205L89.8808 140.409C89.71 139.287 89.8113 138.14 90.1762 137.066V135.528C89.5519 135.629 88.9187 135.662 88.2873 135.628C87.2565 135.467 86.6157 134.653 86.2925 133.539C85.791 131.745 85.6016 130.296 86.0251 126.769C86.4931 122.908 90.9897 122.869 93.4135 124.395C95.8373 125.922 94.9235 130.151 94.9235 130.151Z" fill="#FFA8A7"/>
<path d="M89.8809 140.398L94.7563 136.431V135.795C94.7563 135.795 95.8707 136.018 96.0378 137.601L93.0792 142.108L91.8255 139.763L89.8809 140.398Z" fill="#F0F0F0"/>
<path d="M90.1818 135.522C89.8815 135.566 89.5928 135.668 89.3326 135.824C89.0724 135.98 88.8459 136.186 88.6662 136.431C88.2037 137.2 87.3624 140.398 87.3624 140.398L88.9336 139.183L89.8809 140.398C89.7908 139.275 89.8907 138.145 90.1762 137.055L90.1818 135.522Z" fill="#F0F0F0"/>
<path d="M94.9235 130.574C95.0516 130.574 95.5419 129.761 95.8651 129.46C96.3053 129.053 95.737 125.409 95.737 125.409C95.8528 125.093 95.8739 124.751 95.7977 124.423C95.7215 124.095 95.5513 123.797 95.3079 123.565C94.7006 122.896 93.6865 122.818 91.9648 122.551C91.0565 122.406 89.6803 122.15 88.7776 121.994C87.6632 121.793 86.7996 121.581 86.0307 122.244C85.7327 122.506 85.5222 122.852 85.4275 123.236C85.3328 123.621 85.3586 124.026 85.5013 124.395C85.5798 124.562 85.6831 124.716 85.8078 124.852C86.0126 125.105 86.2822 125.297 86.5879 125.409C86.5879 125.409 87.0615 125.827 88.7052 126.028C90.2201 126.143 91.7426 126.113 93.2519 125.939C93.7311 125.877 93.8091 126.334 94.0877 127.61C94.305 128.686 94.4888 130.563 94.9235 130.574Z" fill="#263238"/>
<path d="M95.7314 125.693L97.286 124.858C97.2363 124.753 97.1659 124.66 97.0792 124.583C96.9925 124.507 96.8911 124.448 96.7813 124.412C96.6715 124.375 96.5554 124.362 96.4401 124.371C96.3248 124.381 96.2126 124.414 96.1103 124.468C95.9029 124.585 95.7482 124.778 95.6778 125.005C95.6074 125.233 95.6266 125.479 95.7314 125.693Z" fill="#263238"/>
<path d="M90.1818 135.522C91.2433 135.321 92.284 135.023 93.2909 134.631C93.7673 134.382 94.1562 133.993 94.4053 133.516C94.2836 133.987 94.0696 134.428 93.7757 134.815C93.185 135.567 90.1873 136.119 90.1873 136.119L90.1818 135.522Z" fill="#F28F8F"/>
<path d="M90.7334 129.594C90.7334 129.716 90.7821 129.834 90.8689 129.921C90.9556 130.008 91.0732 130.056 91.1959 130.056C91.3185 130.056 91.4362 130.008 91.5229 129.921C91.6096 129.834 91.6583 129.716 91.6583 129.594C91.6583 129.471 91.6096 129.354 91.5229 129.267C91.4362 129.18 91.3185 129.131 91.1959 129.131C91.0732 129.131 90.9556 129.18 90.8689 129.267C90.7821 129.354 90.7334 129.471 90.7334 129.594Z" fill="#263238"/>
<path d="M91.207 127.822L92.1932 128.379C92.2639 128.244 92.2796 128.087 92.2371 127.94C92.1945 127.794 92.0969 127.67 91.9648 127.593C91.9001 127.558 91.8291 127.536 91.7559 127.529C91.6827 127.521 91.6087 127.529 91.5383 127.55C91.4678 127.571 91.4022 127.606 91.3454 127.653C91.2885 127.699 91.2415 127.757 91.207 127.822Z" fill="#263238"/>
<path d="M90.3879 132.753L89.3404 133.149C89.3642 133.218 89.4016 133.283 89.4504 133.338C89.4992 133.393 89.5585 133.438 89.6249 133.47C89.6912 133.502 89.7633 133.521 89.8369 133.525C89.9104 133.529 89.9841 133.519 90.0536 133.494C90.1257 133.469 90.192 133.43 90.2483 133.379C90.3047 133.328 90.35 133.265 90.3813 133.196C90.4126 133.127 90.4294 133.051 90.4305 132.975C90.4317 132.899 90.4172 132.823 90.3879 132.753Z" fill="#F28F8F"/>
<path d="M86.6213 128.206L87.5239 127.515C87.4808 127.455 87.4261 127.404 87.3631 127.365C87.3001 127.327 87.23 127.301 87.1568 127.289C87.0837 127.278 87.009 127.281 86.9371 127.299C86.8653 127.317 86.7977 127.349 86.7383 127.393C86.6193 127.488 86.541 127.626 86.5193 127.777C86.4975 127.928 86.534 128.081 86.6213 128.206Z" fill="#263238"/>
<path d="M86.8999 129.432C86.9032 129.523 86.9331 129.611 86.9858 129.684C87.0386 129.758 87.1119 129.815 87.1967 129.847C87.2814 129.88 87.3738 129.887 87.4624 129.867C87.551 129.847 87.6318 129.802 87.6949 129.737C87.7579 129.671 87.8003 129.589 87.8168 129.5C87.8333 129.411 87.8233 129.318 87.7878 129.235C87.7524 129.151 87.6931 129.08 87.6175 129.03C87.5418 128.98 87.4531 128.953 87.3624 128.953C87.3004 128.954 87.2393 128.967 87.1824 128.991C87.1255 129.016 87.0741 129.051 87.031 129.096C86.988 129.141 86.9543 129.193 86.9318 129.251C86.9093 129.309 86.8984 129.37 86.8999 129.432Z" fill="#263238"/>
<path d="M89.2513 128.998L89.0952 131.772L87.6521 131.277L89.2513 128.998Z" fill="#F28F8F"/>
<path d="M96.4279 201.578V201.154C96.1437 201.277 95.4863 203.784 94.3161 204.854C93.3856 205.701 92.0874 206.687 91.7865 207.64C91.4856 208.593 93.5584 209.167 94.4276 209.011C95.4417 208.832 97.2135 208.119 97.637 207.462C98.0605 206.804 98.2834 205.829 98.64 205.344C98.9966 204.859 99.8212 204.319 100.016 203.756C100.074 203.233 100.015 202.704 99.8435 202.207C99.7098 201.683 99.5593 201.093 99.381 201.16V201.472C98.9611 201.804 98.4397 201.981 97.9045 201.973C97.4699 201.99 96.4223 201.906 96.4279 201.578Z" fill="#263238"/>
<path d="M86.1533 196.897C86.0028 196.897 85.8747 197.12 85.5404 197.488C85.033 197.996 84.4457 198.418 83.8019 198.736C82.6875 199.293 80.5423 200.14 79.5673 200.58C78.9599 200.853 79.0101 201.589 79.6174 202.007C80.2247 202.425 81.7626 202.725 83.5846 202.319C84.582 202.096 85.8691 201.204 86.6882 201.232C87.5073 201.26 89.0395 201.266 89.6413 200.853C90.2431 200.441 90.0035 199.544 89.8308 198.781C89.658 198.017 89.4129 196.652 89.1398 196.708V197.014C88.7832 197.571 86.9501 197.772 86.17 197.376L86.1533 196.897Z" fill="#263238"/>
<path d="M91.8366 165.432C90.3096 164.958 88.9056 164.153 87.7245 163.076C87.7245 163.076 88.5158 164.563 90.8783 165.945L90.3712 176.398L91.8366 165.432Z" fill="#263238"/>
<path d="M91.3073 139.935C91.1401 139.534 90.5606 139.35 90.0146 139.339C89.9025 139.337 89.7912 139.359 89.6876 139.402C89.584 139.444 89.4902 139.508 89.412 139.588C89.3338 139.669 89.2728 139.764 89.2327 139.869C89.1926 139.973 89.1742 140.085 89.1788 140.197C89.1882 140.655 89.2846 141.107 89.4629 141.529C89.875 141.437 90.3056 141.476 90.6943 141.64C91.0297 141.128 91.2396 140.544 91.3073 139.935Z" fill="#263238"/>
<path d="M89.463 141.529C89.463 141.529 88.4378 149.959 88.4601 150.444C88.4824 150.929 89.5355 153.86 90.0759 153.86C90.6164 153.86 91.6584 151.235 91.6862 150.823C91.7141 150.411 90.6944 141.629 90.6944 141.629C90.5259 141.485 90.3161 141.397 90.095 141.379C89.8738 141.361 89.6527 141.414 89.463 141.529Z" fill="#263238"/>
<path d="M96.3443 187.135L94.1768 185.87C94.0625 185.796 93.9675 185.696 93.8997 185.578C93.8319 185.459 93.7932 185.327 93.7868 185.191V172.91C93.7936 172.773 93.8325 172.64 93.9002 172.521C93.968 172.402 94.0627 172.3 94.1768 172.225L108.881 163.739C109.004 163.676 109.139 163.643 109.277 163.643C109.414 163.643 109.55 163.676 109.672 163.739L111.834 164.987C111.949 165.061 112.045 165.161 112.114 165.279C112.183 165.397 112.222 165.53 112.23 165.666V177.964C112.218 178.098 112.175 178.228 112.104 178.343C112.034 178.458 111.938 178.555 111.823 178.627L97.1188 187.118C96.9994 187.18 96.8677 187.213 96.7335 187.216C96.5993 187.219 96.4663 187.191 96.3443 187.135Z" fill="#7DD995"/>
<path d="M93.7868 172.91C93.7918 172.773 93.83 172.639 93.8982 172.52L97.1077 174.37V187.146C96.9884 187.203 96.858 187.232 96.726 187.232C96.594 187.232 96.4636 187.203 96.3443 187.146L94.1768 185.87C94.0625 185.796 93.9675 185.696 93.8997 185.578C93.8319 185.459 93.7932 185.327 93.7868 185.191V172.91Z" fill="#F28F8F"/>
<path d="M93.7868 172.91C93.7918 172.773 93.83 172.639 93.8982 172.52L97.1077 174.37V187.146C96.9884 187.203 96.858 187.232 96.726 187.232C96.594 187.232 96.4636 187.203 96.3443 187.146L94.1768 185.87C94.0625 185.796 93.9675 185.696 93.8997 185.578C93.8319 185.459 93.7932 185.327 93.7868 185.191V172.91Z" fill="#7DD995"/>
<path opacity="0.2" d="M93.7868 172.91C93.7918 172.773 93.83 172.639 93.8982 172.52L97.1077 174.37V187.146C96.9884 187.203 96.858 187.232 96.726 187.232C96.594 187.232 96.4636 187.203 96.3443 187.146L94.1768 185.87C94.0625 185.796 93.9675 185.696 93.8997 185.578C93.8319 185.459 93.7932 185.327 93.7868 185.191V172.91Z" fill="black"/>
<path d="M97.13 173.93L111.823 165.438C112.04 165.315 112.219 165.438 112.219 165.666V177.964C112.208 178.097 112.167 178.226 112.098 178.341C112.029 178.456 111.935 178.554 111.823 178.627L97.1188 187.118C96.9015 187.241 96.7232 187.118 96.7232 186.89V174.609C96.7327 174.472 96.7746 174.339 96.8452 174.221C96.9159 174.103 97.0135 174.003 97.13 173.93Z" fill="#7DD995"/>
<path d="M95.8373 173.183C95.7232 173.259 95.6284 173.36 95.5607 173.479C95.4929 173.598 95.4541 173.732 95.4472 173.868V186.617L95.1074 186.428V173.651C95.1146 173.515 95.1537 173.383 95.2214 173.265C95.2892 173.147 95.3837 173.046 95.4974 172.971L110.597 164.257L110.965 164.469L95.8373 173.183Z" fill="#7DD995"/>
<path opacity="0.3" d="M95.8373 173.183C95.7232 173.259 95.6284 173.36 95.5607 173.479C95.4929 173.598 95.4541 173.732 95.4472 173.868V186.617L95.1074 186.428V173.651C95.1146 173.515 95.1537 173.383 95.2214 173.265C95.2892 173.147 95.3837 173.046 95.4974 172.971L110.597 164.257L110.965 164.469L95.8373 173.183Z" fill="black"/>
<path d="M95.4695 172.971L110.514 164.268L110.898 164.474L95.8094 173.183C95.6951 173.259 95.5997 173.36 95.5308 173.478L95.1631 173.267C95.2382 173.144 95.3438 173.042 95.4695 172.971Z" fill="#7DD995"/>
<path opacity="0.2" d="M95.4695 172.971L110.514 164.268L110.898 164.474L95.8094 173.183C95.6951 173.259 95.5997 173.36 95.5308 173.478L95.1631 173.267C95.2382 173.144 95.3438 173.042 95.4695 172.971Z" fill="black"/>
<path d="M97.754 171.016L98.0159 170.865C98.0764 170.835 98.1432 170.819 98.2109 170.819C98.2786 170.819 98.3454 170.835 98.4059 170.865L99.4033 171.422L99.5705 171.372V171.584C99.5685 171.608 99.5603 171.632 99.5466 171.652C99.533 171.673 99.5143 171.69 99.4925 171.701L99.147 171.896C99.0862 171.929 99.0182 171.946 98.9492 171.946C98.8802 171.946 98.8122 171.929 98.7514 171.896L97.6704 171.272C97.6476 171.263 97.6277 171.248 97.613 171.228C97.5982 171.208 97.5892 171.185 97.5869 171.16V170.949L97.754 171.016Z" fill="#7DD995"/>
<path opacity="0.2" d="M97.754 171.016L98.0159 170.865C98.0764 170.835 98.1432 170.819 98.2109 170.819C98.2786 170.819 98.3454 170.835 98.4059 170.865L99.4033 171.422L99.5705 171.372V171.584C99.5685 171.608 99.5603 171.632 99.5466 171.652C99.533 171.673 99.5143 171.69 99.4925 171.701L99.147 171.896C99.0862 171.929 99.0182 171.946 98.9492 171.946C98.8802 171.946 98.8122 171.929 98.7514 171.896L97.6704 171.272C97.6476 171.263 97.6277 171.248 97.613 171.228C97.5982 171.208 97.5892 171.185 97.5869 171.16V170.949L97.754 171.016Z" fill="black"/>
<path d="M97.6704 170.826L98.0159 170.631C98.0757 170.598 98.1427 170.581 98.2109 170.581C98.279 170.581 98.3461 170.598 98.4059 170.631L99.5203 171.255C99.5439 171.263 99.5645 171.278 99.5791 171.298C99.5937 171.318 99.6016 171.342 99.6016 171.367C99.6016 171.391 99.5937 171.416 99.5791 171.436C99.5645 171.456 99.5439 171.47 99.5203 171.478L99.1748 171.679C99.1132 171.709 99.0456 171.724 98.977 171.724C98.9085 171.724 98.8408 171.709 98.7792 171.679L97.6983 171.055C97.6738 171.049 97.6518 171.036 97.635 171.017C97.6183 170.998 97.6076 170.975 97.6046 170.95C97.6016 170.925 97.6062 170.9 97.618 170.878C97.6298 170.856 97.6481 170.838 97.6704 170.826Z" fill="#7DD995"/>
<path d="M106.112 166.558L106.374 166.408C106.434 166.377 106.501 166.361 106.569 166.361C106.637 166.361 106.703 166.377 106.764 166.408L107.761 166.965L107.928 166.915V167.126C107.926 167.151 107.918 167.174 107.905 167.195C107.891 167.215 107.872 167.232 107.85 167.243L107.505 167.438C107.444 167.471 107.376 167.488 107.307 167.488C107.238 167.488 107.17 167.471 107.109 167.438L106.028 166.814C106.006 166.805 105.986 166.79 105.971 166.77C105.956 166.751 105.947 166.727 105.945 166.703V166.491L106.112 166.558Z" fill="#7DD995"/>
<path opacity="0.2" d="M106.112 166.558L106.374 166.408C106.434 166.377 106.501 166.361 106.569 166.361C106.637 166.361 106.703 166.377 106.764 166.408L107.761 166.965L107.928 166.915V167.126C107.926 167.151 107.918 167.174 107.905 167.195C107.891 167.215 107.872 167.232 107.85 167.243L107.505 167.438C107.444 167.471 107.376 167.488 107.307 167.488C107.238 167.488 107.17 167.471 107.109 167.438L106.028 166.814C106.006 166.805 105.986 166.79 105.971 166.77C105.956 166.751 105.947 166.727 105.945 166.703V166.491L106.112 166.558Z" fill="black"/>
<path d="M106.028 166.369L106.374 166.174C106.434 166.141 106.501 166.124 106.569 166.124C106.637 166.124 106.704 166.141 106.764 166.174L107.878 166.798C107.902 166.805 107.922 166.82 107.937 166.84C107.952 166.86 107.96 166.884 107.96 166.909C107.96 166.934 107.952 166.958 107.937 166.978C107.922 166.998 107.902 167.013 107.878 167.02L107.533 167.221C107.471 167.251 107.403 167.267 107.335 167.267C107.266 167.267 107.199 167.251 107.137 167.221L106.056 166.597C106.032 166.591 106.01 166.578 105.993 166.559C105.976 166.541 105.966 166.517 105.963 166.493C105.959 166.468 105.964 166.442 105.976 166.42C105.988 166.398 106.006 166.38 106.028 166.369Z" fill="#7DD995"/>
<path d="M103.744 165.85V167.132L104.479 167.555V165.611C104.479 165.505 104.413 165.466 104.323 165.516L103.744 165.85Z" fill="#7DD995"/>
<path opacity="0.3" d="M103.744 165.85V167.132L104.479 167.555V165.611C104.479 165.505 104.413 165.466 104.323 165.516L103.744 165.85Z" fill="black"/>
<path d="M99.877 167.21V169.584L100.434 169.901L100.802 169.684V167.739C100.805 167.684 100.821 167.631 100.849 167.583C100.878 167.536 100.917 167.495 100.963 167.466L103.749 165.85L104.307 165.516C104.396 165.466 104.463 165.516 104.463 165.611V167.555L104.836 167.344V164.97C104.839 164.959 104.839 164.948 104.836 164.937C104.828 164.888 104.81 164.842 104.783 164.8C104.756 164.759 104.721 164.724 104.68 164.697L104.446 164.563C104.398 164.538 104.344 164.525 104.29 164.525C104.236 164.525 104.182 164.538 104.134 164.563L100.033 166.926C99.9864 166.957 99.9479 167 99.9208 167.049C99.8937 167.098 99.8787 167.154 99.877 167.21Z" fill="#7DD995"/>
<path d="M100.423 167.522V169.901L100.791 169.684V167.739C100.794 167.684 100.81 167.631 100.838 167.583C100.866 167.536 100.906 167.496 100.952 167.466L103.738 165.85L104.295 165.516C104.385 165.466 104.451 165.516 104.451 165.611V167.555L104.825 167.344V164.97C104.827 164.959 104.827 164.948 104.825 164.937C104.825 164.859 104.747 164.836 104.669 164.881L100.557 167.255C100.516 167.287 100.484 167.327 100.46 167.374C100.437 167.42 100.425 167.47 100.423 167.522Z" fill="#7DD995"/>
<path opacity="0.2" d="M100.423 167.522V169.901L100.791 169.684V167.739C100.794 167.684 100.81 167.631 100.838 167.583C100.866 167.536 100.906 167.496 100.952 167.466L103.738 165.85L104.295 165.516C104.385 165.466 104.451 165.516 104.451 165.611V167.555L104.825 167.344V164.97C104.827 164.959 104.827 164.948 104.825 164.937C104.825 164.859 104.747 164.836 104.669 164.881L100.557 167.255C100.516 167.287 100.484 167.327 100.46 167.374C100.437 167.42 100.425 167.47 100.423 167.522Z" fill="black"/>
<path d="M103.605 161.632C103.605 161.632 103.605 162.368 103.605 162.686C103.811 163.65 103.955 164.627 104.034 165.611C104.112 165.956 103.632 166.642 102.841 167.015C102.501 167.177 101.911 167.723 101.643 167.75C101.398 167.697 101.164 167.601 100.952 167.466L101.287 167.271C101.287 167.271 101.749 166.597 101.242 166.24L100.239 166.798C100.182 166.496 100.182 166.186 100.239 165.884C100.334 165.382 100.345 164.736 100.423 164.212C100.535 163.796 100.724 163.405 100.98 163.059L100.813 161.387L103.605 161.632Z" fill="#FFA8A7"/>
<path d="M97.3863 138.102C98.2628 138.414 99.099 138.829 99.8769 139.339C100.495 139.835 104.106 150.176 104.245 151.107C104.385 152.038 103.85 161.833 103.85 161.833C103.368 162.147 102.813 162.332 102.239 162.369C101.665 162.406 101.092 162.294 100.573 162.045L100.016 152.227L96.9071 144.142C96.9071 144.142 95.7258 140.738 97.3863 138.102Z" fill="#37474F"/>
</svg>
