<svg width="418" height="316" viewBox="0 0 418 316" fill="none" xmlns="http://www.w3.org/2000/svg">
<path d="M404.08 207.971H399.684H200.696H196.3V216.489H200.696V303.067H399.684V216.489H404.08V207.971Z" fill="#92E3A9"/>
<path opacity="0.5" d="M404.08 207.971H399.684H200.696H196.3V216.489H200.696V303.067H399.684V216.489H404.08V207.971Z" fill="white"/>
<path d="M206.027 253.183H260.294V225.178H206.027V253.183ZM207.128 226.212H259.193V252.179H207.128V226.212Z" fill="white"/>
<path d="M273.42 253.183H327.698V225.178H273.42V253.183ZM274.542 226.242H326.617V252.179H274.542V226.242Z" fill="white"/>
<path d="M340.823 225.178V253.183H395.091V225.178H340.823ZM393.989 252.179H341.925V226.242H393.989V252.179Z" fill="white"/>
<path d="M206.027 290.832H260.294V262.796H206.027V290.832ZM207.128 263.861H259.193V289.767H207.128V263.861Z" fill="white"/>
<path d="M273.42 290.832H327.698V262.796H273.42V290.832ZM274.542 263.861H326.617V289.767H274.542V263.861Z" fill="white"/>
<path d="M340.823 290.832H395.091V262.796H340.823V290.832ZM341.925 263.861H393.989V289.767H341.925V263.861Z" fill="white"/>
<path d="M233.743 242.746C238.61 242.746 242.555 241.316 242.555 239.552C242.555 237.788 238.61 236.358 233.743 236.358C228.876 236.358 224.93 237.788 224.93 239.552C224.93 241.316 228.876 242.746 233.743 242.746Z" fill="white"/>
<path d="M300.814 242.746C305.681 242.746 309.626 241.316 309.626 239.552C309.626 237.788 305.681 236.358 300.814 236.358C295.946 236.358 292.001 237.788 292.001 239.552C292.001 241.316 295.946 242.746 300.814 242.746Z" fill="white"/>
<path d="M369.828 242.746C374.695 242.746 378.64 241.316 378.64 239.552C378.64 237.788 374.695 236.358 369.828 236.358C364.961 236.358 361.015 237.788 361.015 239.552C361.015 241.316 364.961 242.746 369.828 242.746Z" fill="white"/>
<path d="M233.743 273.976C228.879 273.976 224.93 275.403 224.93 277.17C224.93 278.938 228.879 280.355 233.743 280.355C238.606 280.355 242.555 278.928 242.555 277.17C242.555 275.413 238.606 273.976 233.743 273.976Z" fill="white"/>
<path d="M300.814 273.976C295.95 273.976 292.001 275.403 292.001 277.17C292.001 278.938 295.95 280.355 300.814 280.355C305.677 280.355 309.626 278.928 309.626 277.17C309.626 275.413 305.719 273.976 300.814 273.976Z" fill="white"/>
<path d="M369.828 273.976C364.964 273.976 361.026 275.403 361.026 277.17C361.026 278.938 364.964 280.355 369.828 280.355C374.691 280.355 378.64 278.928 378.64 277.17C378.64 275.413 374.702 273.976 369.828 273.976Z" fill="white"/>
<path d="M171.847 200.527C167.836 206.283 162.245 213.766 159.262 219.773C160.395 215.816 161.507 212.069 162.515 208.724C164.042 205.821 168.137 198.498 172.907 193.656C178.903 187.449 181.47 183.461 178.238 183.119C176.004 182.878 169.457 191.306 165.352 199.673C166.246 196.811 166.952 194.651 167.43 193.355C167.628 192.772 167.815 192.14 168.002 191.467C172.248 185.725 176.115 179.729 179.579 173.516C185.637 162.577 187.591 152.251 183.549 156.691C179.828 160.779 173.354 181.11 168.21 190.673C168.646 189.026 169.062 187.208 169.426 185.409C170.153 183.672 171.109 181.904 171.65 180.297C172.491 177.825 173.229 175.334 173.821 172.793C174.798 168.844 175.294 164.799 175.297 160.739C175.401 155.97 174.057 151.277 171.431 147.238C170.735 146.234 166.474 140.076 165.196 143.22C165.029 143.744 164.997 144.299 165.102 144.838C165.726 150.071 167.69 154.883 168.906 159.976C170.725 167.6 169.519 180.397 168.906 185.841C168.677 186.705 168.386 187.77 168.043 189.006C168.885 179.523 164.635 168.283 160.696 166.314C155.822 163.883 160.603 173.426 164.365 181.763C166.147 185.412 166.985 189.424 166.807 193.455C166.038 196.188 165.154 199.272 164.24 202.385C164.053 202.807 163.887 203.239 163.72 203.661C164.143 201.629 164.314 199.555 164.23 197.484C163.876 192.039 157.495 181.14 153.255 182.677C149.015 184.214 156.196 189.96 160.031 196.65C162.043 200.349 162.817 204.561 162.245 208.704C162.245 208.955 162.161 209.196 162.13 209.427C161.683 210.853 161.247 212.22 160.831 213.525C159.792 216.539 158.909 219.432 158.025 222.224C159.111 218.173 159.587 213.991 159.439 209.809C158.909 201.833 154.076 194.299 150.086 193.265C146.095 192.23 153.713 205.248 156.269 212.561C157.659 216.832 157.895 221.376 156.955 225.76C155.718 229.718 154.554 233.625 153.359 237.754C153.693 232.346 153.571 226.92 152.996 221.531C152.216 212.651 146.76 206.986 142.998 207.217C139.236 207.448 143.165 212.491 148.589 223.289C151.454 228.959 152.729 235.256 152.289 241.551C151.8 243.289 151.25 245.077 150.792 246.945C150.21 249.075 149.753 251.395 149.338 253.766C148.797 251.646 147.987 248.552 147.041 245.137C145.94 241.361 145.141 237.509 144.651 233.615C144.141 229.085 142.905 223.43 138.311 221.079C137.999 220.869 137.643 220.727 137.268 220.664C136.894 220.601 136.509 220.618 136.142 220.714C135.774 220.809 135.433 220.982 135.142 221.218C134.851 221.455 134.617 221.75 134.456 222.084C134.035 223.056 133.94 224.131 134.186 225.157C134.796 228.239 135.845 231.224 137.303 234.027C136.401 235.7 135.991 237.579 136.119 239.462C136.119 240.165 136.181 240.868 136.233 241.571C135.828 240.848 135.443 240.185 135.08 239.562C134.419 238.497 133.608 237.526 132.669 236.679C132.904 235.015 133.022 233.337 133.022 231.657C133.022 229.457 130.351 223.842 127.94 228C126.974 229.668 127.161 232.932 127.067 235.102C126.412 235.705 126.215 236.93 126.766 238.859C126.392 243.881 126.319 249.024 127.576 253.926L126.745 252.53C125.574 246.719 124.879 240.828 124.667 234.911C124.365 225.137 125.976 217.121 123.222 214.108C120.468 211.094 118.93 221.692 120.104 233.244C120.658 238.515 122.112 243.661 124.407 248.472C121.705 243.781 119.034 238.999 116.509 234.409C115.47 231.948 112.892 225.288 113.526 218.538C114.326 210.03 114.908 203.058 111.562 198.267C108.216 193.476 107.52 196.59 109.162 206.574C110.284 213.425 111.479 222.586 113.537 228.944C111.583 225.298 109.743 221.833 108.102 218.699C107.166 215.565 104.984 207.518 104.984 200.839C104.984 192.341 104.049 187.78 101.451 189.618C99.6423 190.914 100.806 201.401 103.716 210.221C102.355 207.539 101.326 205.479 100.733 204.264C100.463 203.711 100.162 203.119 99.819 202.506C98.8681 195.51 97.4624 188.578 95.6102 181.753C92.3159 169.759 86.4443 160.92 86.6313 166.836C86.7976 172.281 96.4207 191.406 99.4241 201.793C98.5719 200.296 97.5847 198.699 96.587 197.142C95.8907 195.384 95.34 193.466 94.6021 191.939C93.4694 189.578 92.2535 187.268 90.8921 185.018C88.8131 181.48 86.3123 178.189 83.441 175.214C80.1147 171.553 75.7321 168.936 70.8561 167.7C69.6298 167.419 62.189 165.691 63.4568 168.906C63.6939 169.396 64.0505 169.823 64.4961 170.151C68.6529 173.566 73.4749 175.786 78.0059 178.709C84.7192 183.089 92.877 193.234 96.2441 197.644L97.8445 200.527C91.7651 193.034 80.7182 187.629 76.4574 188.795C71.1782 190.231 81.4041 194.048 90.04 197.654C93.9203 199.145 97.3661 201.527 100.079 204.595C101.451 207.107 102.978 209.929 104.506 212.812C104.683 213.244 104.849 213.666 105.025 214.088C103.902 212.324 102.566 210.695 101.045 209.236C96.9404 205.499 84.5737 201.733 82.568 205.65C80.5623 209.568 89.8425 209.045 97.3872 211.396C101.451 212.774 104.975 215.332 107.478 218.719C107.623 218.92 107.759 219.13 107.904 219.321C108.59 220.647 109.234 221.943 109.847 223.169C111.261 226.051 112.612 228.754 113.932 231.375C111.871 227.685 109.271 224.302 106.21 221.33C100.183 215.846 91.3286 213.535 87.6602 215.444C83.9917 217.353 98.7694 221.802 105.805 225.489C109.838 227.695 113.218 230.863 115.625 234.69C117.517 238.397 119.419 242.023 121.466 245.83C117.891 241.658 113.975 237.771 109.754 234.208C102.905 228.231 94.9139 227.689 92.3262 230.341C89.7386 232.993 96.1713 234.087 107.748 238.377C113.84 240.63 119.215 244.388 123.336 249.275C124.209 250.873 125.103 252.51 126.059 254.218C127.098 256.146 128.418 258.155 129.811 260.154C127.919 258.969 125.134 257.241 122.037 255.373C118.562 253.34 115.258 251.046 112.154 248.512C108.58 245.549 103.685 242.224 98.6447 243.54C98.2695 243.593 97.9108 243.725 97.5942 243.926C97.2776 244.128 97.0107 244.394 96.8124 244.707C96.6141 245.019 96.4893 245.37 96.4468 245.734C96.4042 246.098 96.445 246.467 96.5662 246.814C96.9333 247.808 97.6221 248.66 98.5304 249.245C103.269 252.791 109.64 254.499 115.158 256.598C120.215 258.522 125.398 260.119 130.673 261.38C131.983 263.198 133.344 264.996 134.716 266.704L132.242 266.774C129.312 266.864 116.093 261.068 109.38 259.21C102.666 257.352 96.3896 260.867 103.425 264.524C110.461 268.18 129.592 267.367 129.592 267.367L135.111 267.206C136.41 268.813 137.678 270.34 138.883 271.736H112.664V278.768H117.86L122.017 303.77H156.861L161.07 278.768H166.266V271.736H148.901C148.761 268.697 148.844 265.653 149.15 262.625C150.309 261.486 151.595 260.476 152.985 259.612C160.613 254.519 173.541 254.097 176.981 244.283C177.812 241.923 176.866 238.889 173.946 239.02C171.868 239.11 169.613 240.898 168.303 242.355C163.939 247.226 160.655 252.279 154.98 255.976C153.031 257.424 151.158 258.966 149.369 260.596C149.566 258.999 149.816 257.291 150.138 255.463C151.509 253.113 153.073 250.872 154.814 248.763C159.46 243.188 166.526 239.924 171.546 234.61C173.084 232.983 175.11 227.136 170.413 228.583C168.334 229.226 165.861 232.289 164.178 233.686C159.553 237.704 154.825 241.983 151.811 247.266C151.936 246.744 152.071 246.262 152.195 245.699C155.437 240.675 159.09 235.908 163.118 231.446C169.789 224.113 176.627 219.311 176.742 215.293C176.856 211.275 168.251 218.005 160.946 227.207C157.632 231.428 155.061 236.149 153.339 241.179C154.679 235.976 156.103 230.712 157.495 225.67C158.451 223.159 161.289 216.629 166.516 212.099C173.115 206.403 178.456 201.702 179.402 196.027C180.348 190.352 177.698 192.15 171.847 200.527ZM134.944 265.137C133.957 263.841 132.928 262.434 131.827 260.877C131.171 258.237 130.733 255.549 130.517 252.841C130.384 250.536 130.496 248.224 130.85 245.941C132.624 248.064 134.507 250.099 136.493 252.038C136.445 254.046 136.191 256.045 135.734 258.005C135.345 260.367 135.081 262.748 134.944 265.137ZM140.598 271.756C139.257 270.38 137.792 268.743 136.202 266.734C136.242 265.14 136.468 263.557 136.877 262.013C137.512 259.578 138.425 257.22 139.6 254.981C142.063 257.241 143.871 258.738 143.871 258.738L148.028 262.264C147.706 265.769 147.519 269.064 147.405 271.736L140.598 271.756ZM148.08 261.651L146.22 260.074C145.181 259.17 143.31 255.674 141.273 251.646C142.142 249.951 142.912 248.211 143.58 246.433C145.783 250.38 147.737 253.464 148.891 255.102C148.558 257.281 148.298 259.501 148.08 261.651Z" fill="#92E3A9"/>
<path opacity="0.5" d="M171.847 200.527C167.836 206.283 162.245 213.766 159.262 219.773C160.395 215.816 161.507 212.069 162.515 208.724C164.042 205.821 168.137 198.498 172.907 193.656C178.903 187.449 181.47 183.461 178.238 183.119C176.004 182.878 169.457 191.306 165.352 199.673C166.246 196.811 166.952 194.651 167.43 193.355C167.628 192.772 167.815 192.14 168.002 191.467C172.248 185.725 176.115 179.729 179.579 173.516C185.637 162.577 187.591 152.251 183.549 156.691C179.828 160.779 173.354 181.11 168.21 190.673C168.646 189.026 169.062 187.208 169.426 185.409C170.153 183.672 171.109 181.904 171.65 180.297C172.491 177.825 173.229 175.334 173.821 172.793C174.798 168.844 175.294 164.799 175.297 160.739C175.401 155.97 174.057 151.277 171.431 147.238C170.735 146.234 166.474 140.076 165.196 143.22C165.029 143.744 164.997 144.299 165.102 144.838C165.726 150.071 167.69 154.883 168.906 159.976C170.725 167.6 169.519 180.397 168.906 185.841C168.677 186.705 168.386 187.77 168.043 189.006C168.885 179.523 164.635 168.283 160.696 166.314C155.822 163.883 160.603 173.426 164.365 181.763C166.147 185.412 166.985 189.424 166.807 193.455C166.038 196.188 165.154 199.272 164.24 202.385C164.053 202.807 163.887 203.239 163.72 203.661C164.143 201.629 164.314 199.555 164.23 197.484C163.876 192.039 157.495 181.14 153.255 182.677C149.015 184.214 156.196 189.96 160.031 196.65C162.043 200.349 162.817 204.561 162.245 208.704C162.245 208.955 162.161 209.196 162.13 209.427C161.683 210.853 161.247 212.22 160.831 213.525C159.792 216.539 158.909 219.432 158.025 222.224C159.111 218.173 159.587 213.991 159.439 209.809C158.909 201.833 154.076 194.299 150.086 193.265C146.095 192.23 153.713 205.248 156.269 212.561C157.659 216.832 157.895 221.376 156.955 225.76C155.718 229.718 154.554 233.625 153.359 237.754C153.693 232.346 153.571 226.92 152.996 221.531C152.216 212.651 146.76 206.986 142.998 207.217C139.236 207.448 143.165 212.491 148.589 223.289C151.454 228.959 152.729 235.256 152.289 241.551C151.8 243.289 151.25 245.077 150.792 246.945C150.21 249.075 149.753 251.395 149.338 253.766C148.797 251.646 147.987 248.552 147.041 245.137C145.94 241.361 145.141 237.509 144.651 233.615C144.141 229.085 142.905 223.43 138.311 221.079C137.999 220.869 137.643 220.727 137.268 220.664C136.894 220.601 136.509 220.618 136.142 220.714C135.774 220.809 135.433 220.982 135.142 221.218C134.851 221.455 134.617 221.75 134.456 222.084C134.035 223.056 133.94 224.131 134.186 225.157C134.796 228.239 135.845 231.224 137.303 234.027C136.401 235.7 135.991 237.579 136.119 239.462C136.119 240.165 136.181 240.868 136.233 241.571C135.828 240.848 135.443 240.185 135.08 239.562C134.419 238.497 133.608 237.526 132.669 236.679C132.904 235.015 133.022 233.337 133.022 231.657C133.022 229.457 130.351 223.842 127.94 228C126.974 229.668 127.161 232.932 127.067 235.102C126.412 235.705 126.215 236.93 126.766 238.859C126.392 243.881 126.319 249.024 127.576 253.926L126.745 252.53C125.574 246.719 124.879 240.828 124.667 234.911C124.365 225.137 125.976 217.121 123.222 214.108C120.468 211.094 118.93 221.692 120.104 233.244C120.658 238.515 122.112 243.661 124.407 248.472C121.705 243.781 119.034 238.999 116.509 234.409C115.47 231.948 112.892 225.288 113.526 218.538C114.326 210.03 114.908 203.058 111.562 198.267C108.216 193.476 107.52 196.59 109.162 206.574C110.284 213.425 111.479 222.586 113.537 228.944C111.583 225.298 109.743 221.833 108.102 218.699C107.166 215.565 104.984 207.518 104.984 200.839C104.984 192.341 104.049 187.78 101.451 189.618C99.6423 190.914 100.806 201.401 103.716 210.221C102.355 207.539 101.326 205.479 100.733 204.264C100.463 203.711 100.162 203.119 99.819 202.506C98.8681 195.51 97.4624 188.578 95.6102 181.753C92.3159 169.759 86.4443 160.92 86.6313 166.836C86.7976 172.281 96.4207 191.406 99.4241 201.793C98.5719 200.296 97.5847 198.699 96.587 197.142C95.8907 195.384 95.34 193.466 94.6021 191.939C93.4694 189.578 92.2535 187.268 90.8921 185.018C88.8131 181.48 86.3123 178.189 83.441 175.214C80.1147 171.553 75.7321 168.936 70.8561 167.7C69.6298 167.419 62.189 165.691 63.4568 168.906C63.6939 169.396 64.0505 169.823 64.4961 170.151C68.6529 173.566 73.4749 175.786 78.0059 178.709C84.7192 183.089 92.877 193.234 96.2441 197.644L97.8445 200.527C91.7651 193.034 80.7182 187.629 76.4574 188.795C71.1782 190.231 81.4041 194.048 90.04 197.654C93.9203 199.145 97.3661 201.527 100.079 204.595C101.451 207.107 102.978 209.929 104.506 212.812C104.683 213.244 104.849 213.666 105.025 214.088C103.902 212.324 102.566 210.695 101.045 209.236C96.9404 205.499 84.5737 201.733 82.568 205.65C80.5623 209.568 89.8425 209.045 97.3872 211.396C101.451 212.774 104.975 215.332 107.478 218.719C107.623 218.92 107.759 219.13 107.904 219.321C108.59 220.647 109.234 221.943 109.847 223.169C111.261 226.051 112.612 228.754 113.932 231.375C111.871 227.685 109.271 224.302 106.21 221.33C100.183 215.846 91.3286 213.535 87.6602 215.444C83.9917 217.353 98.7694 221.802 105.805 225.489C109.838 227.695 113.218 230.863 115.625 234.69C117.517 238.397 119.419 242.023 121.466 245.83C117.891 241.658 113.975 237.771 109.754 234.208C102.905 228.231 94.9139 227.689 92.3262 230.341C89.7386 232.993 96.1713 234.087 107.748 238.377C113.84 240.63 119.215 244.388 123.336 249.275C124.209 250.873 125.103 252.51 126.059 254.218C127.098 256.146 128.418 258.155 129.811 260.154C127.919 258.969 125.134 257.241 122.037 255.373C118.562 253.34 115.258 251.046 112.154 248.512C108.58 245.549 103.685 242.224 98.6447 243.54C98.2695 243.593 97.9108 243.725 97.5942 243.926C97.2776 244.128 97.0107 244.394 96.8124 244.707C96.6141 245.019 96.4893 245.37 96.4468 245.734C96.4042 246.098 96.445 246.467 96.5662 246.814C96.9333 247.808 97.6221 248.66 98.5304 249.245C103.269 252.791 109.64 254.499 115.158 256.598C120.215 258.522 125.398 260.119 130.673 261.38C131.983 263.198 133.344 264.996 134.716 266.704L132.242 266.774C129.312 266.864 116.093 261.068 109.38 259.21C102.666 257.352 96.3896 260.867 103.425 264.524C110.461 268.18 129.592 267.367 129.592 267.367L135.111 267.206C136.41 268.813 137.678 270.34 138.883 271.736H112.664V278.768H117.86L122.017 303.77H156.861L161.07 278.768H166.266V271.736H148.901C148.761 268.697 148.844 265.653 149.15 262.625C150.309 261.486 151.595 260.476 152.985 259.612C160.613 254.519 173.541 254.097 176.981 244.283C177.812 241.923 176.866 238.889 173.946 239.02C171.868 239.11 169.613 240.898 168.303 242.355C163.939 247.226 160.655 252.279 154.98 255.976C153.031 257.424 151.158 258.966 149.369 260.596C149.566 258.999 149.816 257.291 150.138 255.463C151.509 253.113 153.073 250.872 154.814 248.763C159.46 243.188 166.526 239.924 171.546 234.61C173.084 232.983 175.11 227.136 170.413 228.583C168.334 229.226 165.861 232.289 164.178 233.686C159.553 237.704 154.825 241.983 151.811 247.266C151.936 246.744 152.071 246.262 152.195 245.699C155.437 240.675 159.09 235.908 163.118 231.446C169.789 224.113 176.627 219.311 176.742 215.293C176.856 211.275 168.251 218.005 160.946 227.207C157.632 231.428 155.061 236.149 153.339 241.179C154.679 235.976 156.103 230.712 157.495 225.67C158.451 223.159 161.289 216.629 166.516 212.099C173.115 206.403 178.456 201.702 179.402 196.027C180.348 190.352 177.698 192.15 171.847 200.527ZM134.944 265.137C133.957 263.841 132.928 262.434 131.827 260.877C131.171 258.237 130.733 255.549 130.517 252.841C130.384 250.536 130.496 248.224 130.85 245.941C132.624 248.064 134.507 250.099 136.493 252.038C136.445 254.046 136.191 256.045 135.734 258.005C135.345 260.367 135.081 262.748 134.944 265.137ZM140.598 271.756C139.257 270.38 137.792 268.743 136.202 266.734C136.242 265.14 136.468 263.557 136.877 262.013C137.512 259.578 138.425 257.22 139.6 254.981C142.063 257.241 143.871 258.738 143.871 258.738L148.028 262.264C147.706 265.769 147.519 269.064 147.405 271.736L140.598 271.756ZM148.08 261.651L146.22 260.074C145.181 259.17 143.31 255.674 141.273 251.646C142.142 249.951 142.912 248.211 143.58 246.433C145.783 250.38 147.737 253.464 148.891 255.102C148.558 257.281 148.298 259.501 148.08 261.651Z" fill="white"/>
<path d="M69.3492 11.36V113.216H149.369V11.36H69.3492ZM143.819 106.114H74.9402V18.4718H143.819V106.114Z" fill="#92E3A9"/>
<path opacity="0.5" d="M69.3492 11.36V113.216H149.369V11.36H69.3492ZM143.819 106.114H74.9402V18.4718H143.819V106.114Z" fill="white"/>
<path d="M349.366 61.0526V136.27H408.476V61.0526H349.366ZM404.351 131.016H353.523V66.3463H404.382L404.351 131.016Z" fill="#92E3A9"/>
<path opacity="0.5" d="M349.366 61.0526V136.27H408.476V61.0526H349.366ZM404.351 131.016H353.523V66.3463H404.382L404.351 131.016Z" fill="white"/>
<path d="M11.3922 314.277C14.3747 304.513 45.2706 203.018 45.1666 202.255C45.0627 201.492 47.6919 187.861 53.8441 176.5C59.9962 165.139 68.5386 152.482 69.609 150.935C71.2379 148.414 72.3264 145.603 72.8097 142.668C73.6099 138.54 82.1627 127.169 84.8335 124.075C87.5042 120.981 95.5166 104.708 96.057 102.127C96.5974 99.5449 99.7878 97.4757 104.069 96.7022C108.351 95.9287 114.222 95.1553 114.222 95.1553C115.309 96.3913 115.964 97.9277 116.093 99.5449C116.093 101.865 106.47 157.384 105.94 166.686C105.41 175.987 106.74 181.14 102.469 190.703C98.1978 200.266 85.6337 206.193 79.4919 210.07C73.3501 213.947 73.8178 214.751 73.8178 214.751C73.8178 214.751 77.2888 307.697 77.2056 315" fill="white"/>
<g style="mix-blend-mode:multiply" opacity="0.7">
<path d="M120.001 156.058C118.889 151.247 111.687 153.918 111.687 153.918C106.783 159.063 100.745 163.076 94.0202 165.661C82.7641 169.775 71.8866 174.799 61.5031 180.678C62.6878 178.378 63.9765 176.058 65.369 173.647C72.55 161.372 85.2492 144.828 92.3886 142.688C96.7949 141.382 101.191 144.084 103.934 146.375L104.246 96.652H104.069C99.7878 97.4254 96.587 99.4947 96.057 102.076C95.527 104.658 87.5043 120.921 84.8335 124.025C82.1627 127.128 73.61 138.489 72.8098 142.618C72.3264 145.553 71.2379 148.364 69.609 150.885C68.5698 152.432 59.9859 165.078 53.8441 176.449C47.7023 187.82 45.0627 201.431 45.1667 202.205C45.2394 202.767 33.3508 244.394 25.7957 270.591C32.031 258.738 41.7269 239.562 47.6192 225.389C49.9367 225.168 54.4261 219.1 58.1465 214.158C62.5631 208.292 69.1829 206.685 82.4433 197.082C95.7037 187.479 110.596 174.129 112.809 168.795C115.023 163.461 121.102 160.86 120.001 156.058Z" fill="#92E3A9"/>
</g>
<path d="M11.3922 314.277C14.3747 304.513 45.2706 203.018 45.1666 202.255C45.0627 201.492 47.6919 187.861 53.8441 176.5C59.9962 165.139 68.5386 152.482 69.609 150.935C71.2379 148.414 72.3264 145.603 72.8097 142.668C73.6099 138.54 82.1627 127.169 84.8335 124.075C87.5042 120.981 95.5166 104.708 96.057 102.127C96.5974 99.5449 99.7878 97.4757 104.069 96.7022C108.351 95.9287 114.222 95.1553 114.222 95.1553C115.309 96.3913 115.964 97.9277 116.093 99.5449C116.093 101.865 106.47 157.384 105.94 166.686C105.41 175.987 106.74 181.14 102.469 190.703C98.1978 200.266 85.6337 206.193 79.4919 210.07C73.3501 213.947 73.8178 214.751 73.8178 214.751C73.8178 214.751 77.2888 307.697 77.2056 315" stroke="#2E353A" stroke-linecap="round" stroke-linejoin="round"/>
<path d="M103.529 158.419C103.529 158.419 100.598 158.157 97.6574 152.994" stroke="#2E353A" stroke-linecap="round" stroke-linejoin="round"/>
<path d="M100.328 125.109C100.328 125.109 108.642 126.656 109.681 133.366" stroke="#2E353A" stroke-linecap="round" stroke-linejoin="round"/>
<path d="M102.999 104.186C104.838 105.538 106.36 107.252 107.465 109.213C108.57 111.175 109.233 113.34 109.411 115.567" stroke="#2E353A" stroke-linecap="round" stroke-linejoin="round"/>
<path d="M372.384 158.439L371.73 51.1883C371.727 48.0624 370.44 45.0654 368.152 42.856C365.865 40.6466 362.763 39.4055 359.529 39.4055H116.717C113.484 39.4055 110.383 40.6469 108.097 42.8566C105.811 45.0663 104.527 48.0633 104.527 51.1883L103.862 158.439C103.86 160.002 104.178 161.551 104.796 162.995C105.415 164.44 106.322 165.753 107.465 166.859C108.609 167.964 109.967 168.841 111.462 169.439C112.957 170.036 114.559 170.343 116.176 170.342H360.07C361.687 170.343 363.289 170.036 364.784 169.439C366.279 168.841 367.637 167.964 368.78 166.859C369.924 165.753 370.831 164.44 371.45 162.995C372.068 161.551 372.386 160.002 372.384 158.439Z" fill="#2E353A" stroke="#363636" stroke-width="0.868674" stroke-linecap="round" stroke-linejoin="round"/>
<path d="M358.739 164.516L358.209 45.1714H118.036L117.517 164.516H358.739Z" fill="white" stroke="#363636" stroke-width="0.651505" stroke-linecap="round" stroke-linejoin="round"/>
<path d="M358.209 45.1714H118.036L118.016 51.1281H141.086L146.989 59.2846H358.272L358.209 45.1714Z" fill="#92E3A9" stroke="#2E353A" stroke-linecap="round" stroke-linejoin="round"/>
<g style="mix-blend-mode:multiply" opacity="0.5">
<path d="M358.209 68.9177L189.389 164.516H358.739L358.209 68.9177Z" fill="#92E3A9"/>
</g>
<path d="M366.786 104.812C366.8 103.819 365.977 103.003 364.95 102.99C363.923 102.978 363.079 103.772 363.066 104.765C363.053 105.758 363.875 106.573 364.902 106.586C365.929 106.599 366.773 105.805 366.786 104.812Z" fill="white"/>
<path d="M136.534 88.7768C142.027 88.7768 146.48 84.4729 146.48 79.1637C146.48 73.8546 142.027 69.5507 136.534 69.5507C131.042 69.5507 126.589 73.8546 126.589 79.1637C126.589 84.4729 131.042 88.7768 136.534 88.7768Z" fill="#92E3A9" stroke="#2E353A" stroke-linecap="round" stroke-linejoin="round"/>
<path d="M136.534 128.304C142.027 128.304 146.48 124 146.48 118.691C146.48 113.381 142.027 109.078 136.534 109.078C131.042 109.078 126.589 113.381 126.589 118.691C126.589 124 131.042 128.304 136.534 128.304Z" fill="white" stroke="#2E353A" stroke-linecap="round" stroke-linejoin="round"/>
<path d="M204.499 88.7768C209.992 88.7768 214.444 84.4729 214.444 79.1637C214.444 73.8546 209.992 69.5507 204.499 69.5507C199.006 69.5507 194.554 73.8546 194.554 79.1637C194.554 84.4729 199.006 88.7768 204.499 88.7768Z" fill="white" stroke="#2E353A" stroke-linecap="round" stroke-linejoin="round"/>
<path d="M204.499 128.304C209.992 128.304 214.444 124 214.444 118.691C214.444 113.381 209.992 109.078 204.499 109.078C199.006 109.078 194.554 113.381 194.554 118.691C194.554 124 199.006 128.304 204.499 128.304Z" fill="#92E3A9" stroke="#2E353A" stroke-linecap="round" stroke-linejoin="round"/>
<path d="M272.474 88.7768C277.967 88.7768 282.419 84.4729 282.419 79.1637C282.419 73.8546 277.967 69.5507 272.474 69.5507C266.981 69.5507 262.529 73.8546 262.529 79.1637C262.529 84.4729 266.981 88.7768 272.474 88.7768Z" fill="#92E3A9" stroke="#2E353A" stroke-linecap="round" stroke-linejoin="round"/>
<path d="M272.474 128.304C277.967 128.304 282.419 124 282.419 118.691C282.419 113.381 277.967 109.078 272.474 109.078C266.981 109.078 262.529 113.381 262.529 118.691C262.529 124 266.981 128.304 272.474 128.304Z" fill="#92E3A9" stroke="#2E353A" stroke-width="2" stroke-linecap="round" stroke-linejoin="round"/>
<path d="M340.439 88.7768C345.931 88.7768 350.384 84.4729 350.384 79.1637C350.384 73.8546 345.931 69.5507 340.439 69.5507C334.946 69.5507 330.494 73.8546 330.494 79.1637C330.494 84.4729 334.946 88.7768 340.439 88.7768Z" fill="#92E3A9" stroke="#2E353A" stroke-linecap="round" stroke-linejoin="round"/>
<path d="M340.439 128.304C345.931 128.304 350.384 124 350.384 118.691C350.384 113.381 345.931 109.078 340.439 109.078C334.946 109.078 330.494 113.381 330.494 118.691C330.494 124 334.946 128.304 340.439 128.304Z" fill="white" stroke="#2E353A" stroke-linecap="round" stroke-linejoin="round"/>
<path d="M153.817 92.182H186.396" stroke="#2E353A" stroke-linecap="round" stroke-linejoin="round"/>
<path d="M153.817 99.4445H186.396" stroke="#2E353A" stroke-linecap="round" stroke-linejoin="round"/>
<path d="M153.817 106.717H186.396" stroke="#2E353A" stroke-linecap="round" stroke-linejoin="round"/>
<path d="M220.856 92.182H253.436" stroke="#2E353A" stroke-linecap="round" stroke-linejoin="round"/>
<path d="M220.856 99.4445H253.436" stroke="#2E353A" stroke-linecap="round" stroke-linejoin="round"/>
<path d="M220.856 106.717H253.436" stroke="#2E353A" stroke-linecap="round" stroke-linejoin="round"/>
<path d="M292.282 92.182H324.861" stroke="#2E353A" stroke-linecap="round" stroke-linejoin="round"/>
<path d="M292.282 99.4445H324.861" stroke="#2E353A" stroke-linecap="round" stroke-linejoin="round"/>
<path d="M292.282 106.717H324.861" stroke="#2E353A" stroke-linecap="round" stroke-linejoin="round"/>
<path d="M153.817 133.306H186.396" stroke="#2E353A" stroke-linecap="round" stroke-linejoin="round"/>
<path d="M153.817 140.579H186.396" stroke="#2E353A" stroke-linecap="round" stroke-linejoin="round"/>
<path d="M153.817 147.841H186.396" stroke="#2E353A" stroke-linecap="round" stroke-linejoin="round"/>
<path d="M220.856 133.306H253.436" stroke="#2E353A" stroke-linecap="round" stroke-linejoin="round"/>
<path d="M220.856 140.579H253.436" stroke="#2E353A" stroke-linecap="round" stroke-linejoin="round"/>
<path d="M220.856 147.841H253.436" stroke="#2E353A" stroke-linecap="round" stroke-linejoin="round"/>
<path d="M292.282 133.306H324.861" stroke="#2E353A" stroke-linecap="round" stroke-linejoin="round"/>
<path d="M292.282 140.579H324.861" stroke="#2E353A" stroke-linecap="round" stroke-linejoin="round"/>
<path d="M292.282 147.841H324.861" stroke="#2E353A" stroke-linecap="round" stroke-linejoin="round"/>
<path d="M252.854 119.183H259.027" stroke="#2E353A" stroke-linecap="round" stroke-linejoin="round"/>
<path d="M273.129 107.26V99.8062" stroke="#2E353A" stroke-linecap="round" stroke-linejoin="round"/>
<path d="M259.463 108.113L263.433 111.097" stroke="#2E353A" stroke-linecap="round" stroke-linejoin="round"/>
<path d="M264.316 126.847L259.463 129.409" stroke="#2E353A" stroke-linecap="round" stroke-linejoin="round"/>
<path d="M293.84 119.183H287.667" stroke="#2E353A" stroke-linecap="round" stroke-linejoin="round"/>
<path d="M287.221 108.113L283.261 111.097" stroke="#2E353A" stroke-linecap="round" stroke-linejoin="round"/>
<path d="M268.328 138.931L273.524 156.872" stroke="#2E353A" stroke-linecap="round" stroke-linejoin="round"/>
<path d="M263.121 136.772L266.093 146.103" stroke="#2E353A" stroke-linecap="round" stroke-linejoin="round"/>
<path d="M391.184 307.627C391.184 307.627 366.502 263.63 362.99 255.915C359.477 248.201 356.827 236.046 355.965 232.711C354.717 228.798 354.602 224.629 355.632 220.657C356.931 215.032 356.162 198.98 356.744 195.294C357.326 191.607 354.967 180.076 353.626 173.617C352.286 167.158 349.251 162.567 345.157 162.065C343.966 161.927 342.758 162.076 341.641 162.498C340.525 162.921 339.533 163.604 338.755 164.486C338.755 164.486 337.051 150.734 335.399 147.881C333.746 145.029 328.363 145.441 325.484 146.124C322.606 146.807 321.224 155.706 321.224 155.706C321.224 155.706 318.73 147.158 318.657 143.341C318.584 139.524 313.783 136.239 310.042 137.143C306.301 138.047 304.284 139.705 303.266 147.62C302.248 155.536 304.17 167.781 304.17 167.781L302.227 168.544C302.227 168.544 295.222 144.838 292.999 138.58C290.775 132.322 288.634 125.16 287.137 120.499C285.641 115.838 283.417 108.445 277.296 109.58C271.175 110.715 272.682 123.643 272.682 123.643C272.682 123.643 282.253 163.26 282.752 166.384C283.251 169.508 284.83 180.357 284.519 183.973C284.207 187.589 284.217 197.032 284.217 197.032L275.103 186.525C273.98 183.682 272.563 180.956 270.874 178.388C267.756 173.526 260.824 168.996 256.325 170.352C251.825 171.708 255.379 176.188 257.239 178.689C259.099 181.191 260.606 188.212 260.606 191.748C260.606 195.284 263.724 197.775 267.486 204.264C271.248 210.753 290.13 233.173 292.988 237.212C295.104 239.925 297.766 242.197 300.813 243.891C300.813 243.891 311.725 253.083 316.817 264.554C321.91 276.025 337.529 308.963 337.529 308.963" fill="white"/>
<g style="mix-blend-mode:multiply" opacity="0.7">
<path d="M353.813 297.16C358.916 292.64 360.184 256.126 359.539 242.535C359.539 242.425 359.539 242.294 359.539 242.174C357.721 237.633 356.308 233.947 355.985 232.711C354.738 228.798 354.623 224.629 355.653 220.657C356.952 215.032 356.183 198.98 356.765 195.294C357.108 193.114 356.411 188.152 355.518 183.129C351.818 182.818 345.042 186.042 345.042 186.042C345.042 186.042 339.701 178.529 336.22 178.268C332.738 178.006 326.7 183.29 326.7 183.29C326.7 183.29 323.24 172.02 316.131 173.175C309.023 174.33 307.028 173.175 304.222 173.295C301.416 173.416 299.14 166.816 296.334 160.337C293.529 153.858 289.507 129.63 287.127 124.607C287.127 124.607 283.396 114.502 278.564 117.867C273.732 121.232 278.273 132.231 280.538 138.831C282.804 145.43 284.02 157.967 285.859 163.943C287.938 170.603 286.898 180.497 288.8 187.75C290.702 195.002 295.586 197.353 292.895 206.835C290.203 216.318 284.321 213.294 277.764 207.719C271.206 202.144 267.964 189.377 264.254 190.643C262.968 190.957 261.726 191.419 260.554 192.019C260.637 195.495 263.672 198.046 267.434 204.395C271.196 210.743 290.13 233.173 292.988 237.212C295.104 239.925 297.766 242.197 300.813 243.891C300.813 243.891 311.725 253.083 316.817 264.554C317.732 266.613 319.187 269.657 320.974 273.273C323.053 274.88 318.646 267.246 319.727 268.512C326.929 276.678 348.721 301.69 353.813 297.16Z" fill="#92E3A9"/>
</g>
<path d="M391.184 307.627C391.184 307.627 366.502 263.63 362.99 255.915C359.477 248.201 356.827 236.046 355.965 232.711C354.717 228.798 354.602 224.629 355.632 220.657C356.931 215.032 356.162 198.98 356.744 195.294C357.326 191.607 354.967 180.076 353.626 173.617C352.286 167.158 349.251 162.567 345.157 162.065C343.966 161.927 342.758 162.076 341.641 162.498C340.525 162.921 339.533 163.604 338.755 164.486C338.755 164.486 337.051 150.734 335.399 147.881C333.746 145.029 328.363 145.441 325.484 146.124C322.606 146.807 321.224 155.706 321.224 155.706C321.224 155.706 318.73 147.158 318.657 143.341C318.584 139.524 313.783 136.239 310.042 137.143C306.301 138.047 304.284 139.705 303.266 147.62C302.248 155.536 304.17 167.781 304.17 167.781L302.227 168.544C302.227 168.544 295.222 144.838 292.999 138.58C290.775 132.322 288.634 125.16 287.137 120.499C285.641 115.838 283.417 108.445 277.296 109.58C271.175 110.715 272.682 123.643 272.682 123.643C272.682 123.643 282.253 163.26 282.752 166.384C283.251 169.508 284.83 180.357 284.519 183.973C284.207 187.589 284.217 197.032 284.217 197.032L275.103 186.525C273.98 183.682 272.563 180.956 270.874 178.388C267.756 173.526 260.824 168.996 256.325 170.352C251.825 171.708 255.379 176.188 257.239 178.689C259.099 181.191 260.606 188.212 260.606 191.748C260.606 195.284 263.724 197.775 267.486 204.264C271.248 210.753 290.13 233.173 292.988 237.212C295.104 239.925 297.766 242.197 300.813 243.891C300.813 243.891 311.725 253.083 316.817 264.554C321.91 276.025 337.529 308.963 337.529 308.963" stroke="#2E353A" stroke-linecap="round" stroke-linejoin="round"/>
<path d="M274.054 112.453C274.054 112.453 275.186 119.243 275.405 120.097C275.893 122.016 284.103 121.101 284.758 119.625C285.34 118.309 284.914 115.456 284.914 115.456" stroke="#2E353A" stroke-linecap="round" stroke-linejoin="round"/>
<path d="M259.993 179.001C260.676 178.33 261.099 177.453 261.192 176.517C261.284 175.58 261.041 174.641 260.502 173.858C258.569 171.075 257.489 170.453 257.489 170.453" stroke="#2E353A" stroke-linecap="round" stroke-linejoin="round"/>
<path d="M283.552 151.799C283.552 151.799 287.22 152.984 290.671 148.615" stroke="#2E353A" stroke-width="0.75" stroke-linecap="round" stroke-linejoin="round"/>
<path d="M283.989 148.715C283.989 148.715 288.883 145.169 292.624 145.461" stroke="#2E353A" stroke-width="0.75" stroke-linecap="round" stroke-linejoin="round"/>
<path d="M278.917 130.182C278.917 130.182 282.586 126.646 285.527 127.41" stroke="#2E353A" stroke-width="0.75" stroke-linecap="round" stroke-linejoin="round"/>
<path d="M282.367 129.348C283.875 129.594 285.42 129.525 286.898 129.148" stroke="#2E353A" stroke-width="0.75" stroke-linecap="round" stroke-linejoin="round"/>
<path d="M321.213 155.737L323.146 166.796" stroke="#2E353A" stroke-linecap="round" stroke-linejoin="round"/>
<path d="M338.745 164.516L340.813 176.128" stroke="#2E353A" stroke-linecap="round" stroke-linejoin="round"/>
<path d="M284.207 197.102C284.207 197.102 283.687 205.791 284.55 209.156" stroke="#2E353A" stroke-linecap="round" stroke-linejoin="round"/>
<path d="M323.157 172.682C323.157 172.682 325.287 178.137 324.767 181.723" stroke="#2E353A" stroke-width="0.75" stroke-linecap="round" stroke-linejoin="round"/>
<path d="M340.584 178.318C340.584 178.318 342.029 181.13 341.166 186.253" stroke="#2E353A" stroke-width="0.75" stroke-linecap="round" stroke-linejoin="round"/>
<path d="M93.646 162.547C93.646 162.547 102.469 161 107.27 155.325C112.071 149.649 123.565 142.407 127.306 141.121C131.047 139.835 136.929 139.564 139.07 141.372C141.211 143.18 142.271 147.57 139.07 152.743C135.869 157.916 122.817 162.778 120.094 165.129C117.371 167.479 115.023 169.006 111.78 175.977C108.624 182.731 104.081 188.793 98.4264 193.797C93.3446 198.187 84.0021 205.68 79.1905 208.513" fill="white"/>
<g style="mix-blend-mode:multiply" opacity="0.7">
<path d="M120.001 156.058C118.889 151.247 111.687 153.918 111.687 153.918C106.783 159.063 100.745 163.076 94.0202 165.661C82.7641 169.775 71.8866 174.799 61.5031 180.678C62.6878 178.378 63.9765 176.058 65.369 173.647C72.55 161.372 85.2492 144.828 92.3886 142.688C96.7949 141.382 101.191 144.084 103.934 146.375L104.246 96.652H104.069C99.7878 97.4254 96.587 99.4947 96.057 102.076C95.527 104.658 87.5043 120.921 84.8335 124.025C82.1627 127.128 73.61 138.489 72.8098 142.618C72.3264 145.553 71.2379 148.364 69.609 150.885C68.5698 152.432 59.9859 165.078 53.8441 176.449C47.7023 187.82 45.0627 201.431 45.1667 202.205C45.2394 202.767 33.3508 244.394 25.7957 270.591C32.031 258.738 41.7269 239.562 47.6192 225.389C49.9367 225.168 54.4261 219.1 58.1465 214.158C62.5631 208.292 69.1829 206.685 82.4433 197.082C95.7037 187.479 110.596 174.129 112.809 168.795C115.023 163.461 121.102 160.86 120.001 156.058Z" fill="#92E3A9"/>
</g>
<path d="M93.646 162.547C93.646 162.547 102.469 161 107.27 155.325C112.071 149.649 123.565 142.407 127.306 141.121C131.047 139.835 136.929 139.564 139.07 141.372C141.211 143.18 142.271 147.57 139.07 152.743C135.869 157.916 122.817 162.778 120.094 165.129C117.371 167.479 115.023 169.006 111.78 175.977C108.624 182.731 104.081 188.793 98.4264 193.797C93.3446 198.187 84.0021 205.68 79.1905 208.513" stroke="#2E353A" stroke-linecap="round" stroke-linejoin="round"/>
<path d="M139.33 150.724C137.729 153.045 133.718 153.306 133.718 153.306C133.718 153.306 132.118 149.951 131.047 147.881C130.214 146.489 129.017 145.332 127.576 144.526C127.576 144.526 128.917 141.171 131.588 141.171" stroke="#2E353A" stroke-linecap="round" stroke-linejoin="round"/>
<path d="M34.7433 214.932C44.6028 212.868 54.7016 212.074 64.7766 212.571C81.8301 213.365 85.8831 222.777 85.8831 222.777L85.0725 243.962C85.0725 243.962 76.1456 237.684 57.4709 235.333C38.7962 232.983 29.0588 234.55 29.0588 234.55L34.7433 214.932Z" fill="white" stroke="#2E353A" stroke-linecap="round" stroke-linejoin="round"/>
<path d="M86.0493 313.785L90.4452 245.79C62.0331 229.306 29.0588 234.55 29.0588 234.55L1 313.785H86.0493Z" fill="#2E353A" stroke="#2E353A" stroke-linecap="round" stroke-linejoin="round"/>
<path d="M307.797 261.551C307.797 261.551 310.572 250.843 325.807 242.134C341.041 233.425 363.915 236.78 363.915 236.78L367.375 245.479C367.375 245.479 348.669 244.816 334.817 252.179C320.964 259.542 314.032 268.251 314.032 268.251L307.797 261.551Z" fill="white" stroke="#2E353A" stroke-linecap="round" stroke-linejoin="round"/>
<path d="M410.939 313.785L369.828 242.746C369.828 242.746 354.24 238.789 335.534 246.152C316.828 253.515 309.2 267.578 309.2 267.578L317.067 313.785H410.939Z" fill="#2E353A" stroke="#2E353A" stroke-linecap="round" stroke-linejoin="round"/>
<path d="M318.127 269.727C318.646 271.887 318.023 273.876 316.713 274.167C315.404 274.458 313.928 272.952 313.409 270.792C312.889 268.632 313.513 266.643 314.812 266.352C316.111 266.061 317.597 267.568 318.127 269.727Z" fill="white"/>
</svg>
