<?xml version="1.0" standalone="no"?>
<!DOCTYPE svg PUBLIC "-//W3C//DTD SVG 20010904//EN"
 "http://www.w3.org/TR/2001/REC-SVG-20010904/DTD/svg10.dtd">
<svg version="1.0" xmlns="http://www.w3.org/2000/svg"
 width="1184.000000pt" height="795.000000pt" viewBox="0 0 1184.000000 795.000000"
 preserveAspectRatio="xMidYMid meet">

<g transform="translate(0.000000,795.000000) scale(0.100000,-0.100000)"
fill="#000000" stroke="none">
<path d="M5775 7934 c-287 -42 -521 -238 -607 -509 -58 -181 -47 -353 33 -530
44 -98 151 -228 237 -287 23 -16 42 -33 42 -39 0 -9 -65 -108 -125 -189 -11
-15 -44 -61 -72 -101 -119 -167 -158 -221 -372 -521 -124 -172 -248 -344 -276
-383 -28 -38 -64 -89 -81 -112 -16 -24 -33 -43 -39 -43 -5 0 -26 15 -45 33
-19 18 -102 88 -185 157 -82 68 -188 156 -234 195 -47 38 -146 121 -220 183
-75 62 -171 142 -213 177 -42 36 -82 65 -88 65 -6 0 -19 -19 -29 -42 -21 -50
-61 -137 -101 -223 -30 -64 -55 -120 -127 -280 -25 -55 -60 -131 -78 -170 -18
-38 -43 -92 -55 -120 -12 -27 -35 -77 -50 -110 -16 -33 -33 -72 -39 -87 -6
-16 -15 -28 -21 -28 -6 0 -41 20 -78 44 -151 98 -528 340 -795 511 -18 11
-108 69 -202 129 -93 60 -207 133 -252 163 -46 29 -83 55 -83 58 0 3 15 36 34
73 61 120 71 170 70 337 0 137 -3 156 -27 225 -81 222 -250 390 -472 467 -72
24 -94 27 -220 28 -120 0 -151 -3 -215 -23 -116 -37 -204 -88 -291 -170 -64
-60 -159 -184 -159 -207 0 -3 -8 -24 -18 -48 -52 -119 -71 -252 -52 -369 25
-158 71 -264 163 -378 162 -199 436 -302 687 -257 36 7 71 16 79 21 18 12 36
-10 116 -139 37 -60 83 -135 102 -165 72 -115 174 -278 216 -345 24 -38 75
-119 112 -180 37 -60 89 -144 115 -185 26 -41 85 -136 130 -210 46 -74 102
-164 125 -200 23 -36 68 -108 100 -160 32 -52 79 -129 105 -170 26 -41 134
-214 240 -385 106 -170 214 -345 241 -387 90 -143 146 -232 200 -320 l54 -88
2778 -1 c1527 -1 2782 -2 2789 -3 7 -1 25 17 41 39 34 47 305 465 357 550 21
35 260 406 357 554 45 69 113 176 151 236 38 61 126 198 195 305 70 107 170
264 224 348 54 84 163 254 243 377 80 124 190 295 245 381 55 86 105 160 112
166 8 6 30 3 70 -11 99 -35 219 -47 315 -32 209 32 377 128 496 283 224 293
198 700 -62 958 -106 105 -187 155 -321 196 -47 14 -92 18 -205 18 -133 0
-152 -2 -225 -27 -242 -84 -407 -263 -486 -527 -18 -59 -18 -279 -1 -345 19
-70 60 -164 100 -229 17 -27 17 -28 -7 -45 -13 -9 -49 -30 -80 -47 -31 -17
-231 -131 -446 -254 -214 -122 -415 -236 -445 -253 -30 -16 -67 -38 -82 -49
-14 -10 -28 -18 -31 -18 -2 0 -65 -34 -138 -76 -74 -42 -159 -90 -189 -107
-30 -17 -75 -43 -99 -59 -25 -15 -48 -28 -53 -28 -4 0 -19 25 -33 55 -13 30
-40 88 -59 127 -67 145 -106 230 -106 233 0 2 -18 43 -41 92 -22 48 -50 108
-61 133 -11 25 -31 68 -44 95 -13 28 -55 120 -93 205 -39 85 -74 155 -80 155
-5 0 -222 -177 -483 -394 l-472 -394 -23 29 c-26 33 -467 624 -682 915 -80
106 -171 229 -203 271 -32 43 -58 81 -58 86 0 5 24 24 53 42 102 66 211 194
266 314 86 187 81 436 -13 629 -88 179 -277 330 -484 386 -45 13 -218 22 -267
15z m160 -329 c130 -33 230 -115 287 -234 30 -61 32 -74 32 -166 0 -86 -4
-108 -27 -158 -36 -80 -123 -168 -205 -209 -63 -30 -74 -32 -172 -32 -98 0
-109 2 -170 32 -108 53 -182 138 -219 252 -73 221 59 450 297 515 65 17 111
18 177 0z m-4854 -930 c114 -29 209 -108 267 -220 35 -67 36 -74 36 -175 1
-99 -1 -109 -33 -172 -79 -160 -273 -262 -434 -229 -115 24 -212 84 -271 169
-36 52 -76 172 -76 227 0 174 128 347 290 394 25 8 50 15 55 16 28 9 117 3
166 -10z m9895 -15 c73 -32 146 -91 186 -152 44 -65 78 -166 78 -227 -1 -192
-150 -363 -351 -401 -169 -33 -361 72 -436 237 -23 51 -27 71 -27 163 0 97 2
110 30 170 52 110 171 207 283 231 60 13 182 2 237 -21z m-5014 -412 c46 -62
127 -171 179 -243 52 -71 128 -175 169 -231 69 -94 194 -263 387 -525 43 -59
110 -150 148 -203 39 -53 120 -163 180 -245 61 -82 155 -210 210 -285 107
-146 249 -339 355 -482 36 -49 71 -99 78 -111 7 -13 19 -23 27 -23 8 0 58 28
112 63 54 35 154 99 223 142 69 43 166 104 215 135 100 63 287 182 500 315 77
49 181 114 230 145 50 31 153 97 230 145 173 108 284 178 443 279 68 43 126
76 129 73 3 -4 -5 -21 -19 -39 -14 -18 -171 -251 -350 -518 -179 -267 -407
-606 -508 -755 -100 -148 -266 -395 -368 -547 l-187 -278 -2491 0 -2492 0 -86
128 c-47 70 -160 235 -251 367 -90 132 -193 283 -229 335 -36 52 -82 120 -103
150 -21 30 -105 154 -188 275 -82 121 -151 222 -155 225 -3 3 -43 61 -90 130
-46 69 -158 232 -247 364 -90 131 -162 241 -159 244 3 2 16 -3 28 -11 39 -28
254 -175 783 -535 138 -93 264 -180 280 -192 17 -12 217 -149 445 -304 228
-155 457 -311 508 -346 54 -37 96 -60 100 -54 9 9 56 74 292 394 79 107 200
272 270 365 178 240 270 364 485 655 103 140 223 302 266 360 260 351 365 493
454 614 55 75 103 136 107 136 3 0 44 -51 90 -112z m2178 -1204 c94 -236 125
-322 116 -330 -18 -19 -455 -264 -469 -263 -11 0 -339 432 -345 455 -2 6 73
72 165 147 92 74 218 176 278 226 61 49 114 89 119 87 5 -1 66 -146 136 -322z
m-4371 244 c48 -40 164 -134 257 -208 92 -74 186 -151 208 -171 l39 -36 -41
-59 c-23 -32 -60 -84 -82 -114 -22 -30 -48 -66 -58 -81 -79 -116 -157 -219
-168 -219 -12 0 -96 52 -416 259 -54 35 -98 67 -98 72 0 4 7 25 16 46 9 21 21
47 25 58 8 18 177 443 200 503 5 12 13 22 19 22 6 0 50 -33 99 -72z"/>
<path d="M3132 1873 l3 -208 2779 -3 c1606 -1 2784 2 2789 7 6 6 11 238 7 404
0 4 -1256 7 -2790 7 l-2790 0 2 -207z"/>
<path d="M20 590 l0 -591 113 3 112 3 3 468 2 467 430 0 430 0 0 -115 0 -115
-355 0 c-195 0 -355 -3 -355 -8 0 -4 156 -163 348 -355 l347 -347 158 0 c86 0
157 3 157 8 0 4 -101 108 -225 232 l-225 225 187 5 188 5 0 350 0 350 -657 3
-658 2 0 -590z"/>
<path d="M1504 1167 c-2 -7 -3 -60 -2 -118 l3 -104 660 0 660 0 0 115 0 115
-658 3 c-538 2 -658 0 -663 -11z"/>
<path d="M2990 590 l0 -591 113 3 112 3 0 585 0 585 -112 3 -113 3 0 -591z"/>
<path d="M3776 1164 c-8 -20 -8 -1128 0 -1148 5 -14 49 -16 391 -16 l385 0
274 275 274 274 0 316 0 315 -659 0 c-592 0 -659 -2 -665 -16z m1094 -367 l0
-142 -208 -208 -207 -207 -223 0 -222 0 0 350 0 350 430 0 430 0 0 -143z"/>
<path d="M5260 590 l0 -590 115 0 115 0 0 235 0 235 430 0 430 0 2 -232 3
-233 115 0 115 0 0 585 0 585 -662 3 -663 2 0 -590z m1090 235 l0 -115 -430 0
-430 0 0 115 0 115 430 0 430 0 0 -115z"/>
<path d="M7145 1168 c-3 -7 -4 -272 -3 -588 l3 -575 113 -3 112 -3 0 591 0
590 -110 0 c-79 0 -112 -4 -115 -12z"/>
<path d="M7535 1168 c-3 -7 -4 -272 -3 -588 l3 -575 109 -3 c81 -2 112 1 118
10 4 7 8 200 8 428 l0 415 428 -428 427 -427 118 0 117 0 0 590 0 590 -115 0
-115 0 0 -420 c0 -231 -3 -420 -7 -420 -4 0 -197 189 -428 420 l-421 420 -117
0 c-85 0 -119 -3 -122 -12z"/>
<path d="M9027 1173 c-4 -3 -7 -269 -7 -590 l0 -584 113 3 112 3 3 232 2 233
546 2 546 3 0 115 0 115 -546 3 -546 2 0 115 0 115 545 0 c356 0 545 3 545 10
1 6 1 55 1 110 0 55 0 105 -1 110 0 11 -1302 15 -1313 3z"/>
<path d="M10510 1170 c0 -5 0 -266 0 -580 0 -314 0 -574 0 -580 0 -7 227 -10
660 -10 l660 0 0 590 0 590 -660 0 c-433 0 -660 -3 -660 -10z m1088 -577 l-3
-348 -427 -3 -428 -2 0 350 0 350 430 0 430 0 -2 -347z"/>
<path d="M1504 697 c-2 -7 -3 -60 -2 -118 l3 -104 660 0 660 0 0 115 0 115
-658 3 c-538 2 -658 0 -663 -11z"/>
<path d="M1507 233 c-4 -3 -7 -57 -7 -120 l0 -113 663 2 662 3 0 115 0 115
-656 3 c-360 1 -659 -1 -662 -5z"/>
</g>
</svg>
